<?xml version="1.0" encoding="utf-8"?>
<!-- Generator: Adobe Illustrator 23.0.0, SVG Export Plug-In . SVG Version: 6.00 Build 0)  -->
<svg version="1.1" id="Layer_1" xmlns="http://www.w3.org/2000/svg" xmlns:xlink="http://www.w3.org/1999/xlink" x="0px" y="0px"
	 viewBox="0 0 260 260" style="enable-background:new 0 0 260 260;" xml:space="preserve">
<style type="text/css">
	.st0{fill:#EEF5E2;}
	.st1{fill:#B7DBA4;}
</style>
<rect class="st0" width="260" height="260"/>
<image style="overflow:visible;" width="942" height="1019" xlink:href="8C03DA1.jpg"  transform="matrix(0.24 0 0 0.24 -277 511)">
</image>
<g>
	<path class="st1" d="M12,211.4c0-1.1-1-1.9-2.3-1.9h-3c-1.3,0-2.3,0.9-2.3,1.9v11.8c0,1.1,1,1.9,2.3,1.9h3c1.3,0,2.3-0.9,2.3-1.9
		v-0.9h1.8l1.9,1.9h3.1l-0.9-1c-0.2-0.2-0.3-0.4-0.4-0.6l-0.1-0.3l-0.2-0.1c-1-0.5-1.3-1.4-1.4-2.1c-0.2-1,0.6-1.9,0.7-2l2.8-2.5h5
		l2.2,2.1c0.4,0.4,0.9,0.7,1.5,0.7c0.8,0,1.2-0.4,1.3-0.5c0.5-0.4,0.8-1,0.8-1.5c0-0.9-0.6-1.5-0.8-1.6l-3-3
		c-0.7-0.7-2.3-0.7-2.5-0.7h-4.1c-1.5,0-2.6,0.9-3,1.3H12V211.4z M16.9,213.6l0.3,0l0.2-0.2c0,0,1-1.1,2.3-1.1h4.1
		c0.4,0,1.4,0.1,1.6,0.4l3,3l0,0c0,0,0.4,0.3,0.4,0.7c0,0.2-0.1,0.4-0.4,0.6l0,0c0,0-0.1,0.2-0.5,0.2c-0.2,0-0.4-0.1-0.7-0.3
		l-2.5-2.4h-5.9l-3.2,2.8l0,0c-0.1,0.1-1.3,1.4-1,3c0.2,1,0.9,1.9,2.1,2.6c0,0,0,0.1,0,0.1h-0.5l-1.9-1.9h-3.4v2.1
		c0,0.4-0.5,0.8-1.2,0.8h-3c-0.6,0-1.2-0.3-1.2-0.8v-11.8c0-0.4,0.5-0.8,1.2-0.8h3c0.6,0,1.2,0.3,1.2,0.8v2.2H16.9z"/>
	<path class="st1" d="M30.7,215.5c1.1,2.3-1,3.6-1.1,3.6l0,0c-1.6,1.2-3.4-0.2-3.5-0.3l-2-2h-3.8l-2.1,1.7c-1.4,1.3-1,2.5-0.6,3.1
		c0.5,0.6,1.1,0.7,1.5,0.8c0,0.1,0,0.2,0,0.3c0,0.7,0.5,1.2,0.5,1.2c0.5,0.5,1.2,0.6,1.8,0.6v7.9c-0.6,0.4-1.1,1.3-1.1,2.3v10.6
		c0,1,0.6,1.8,1.5,1.8h3.5c0.8,0,1.5-0.8,1.5-1.8v-10.6c0-1-0.4-1.8-1.1-2.3v-4.1c0.7,0.1,1.4-0.3,1.6-0.5l4.8-4.7h2v0.5
		c0,1,1,1.8,2.2,1.8h2.8c1.2,0,2.2-0.8,2.2-1.8v-11.1c0-1-1-1.8-2.2-1.8h-2.8c-1.2,0-2.2,0.8-2.2,1.8v2.3h-3.6L30.7,215.5z
		 M31.5,221.9l-5.1,5c0,0-0.5,0.5-1.1,0.1l-0.9-0.6v6.8l0.4,0.1c0.4,0.1,0.7,0.8,0.7,1.4v10.6c0,0.4-0.2,0.7-0.3,0.7h-3.5
		c-0.1,0-0.3-0.3-0.3-0.7v-10.6c0-0.7,0.3-1.3,0.7-1.4l0.4-0.1v-9.1l0.8-0.8h-1.3l-0.6,0v0.1c-0.3,0-0.7,0-1-0.3
		c-0.1-0.1-0.4-0.5,0.2-1.1l2.9-2.9l-3.6,2.1c0,0-0.8,0.5-1.4-0.2c-0.1-0.1-0.5-0.7,0.4-1.5l1.8-1.4h2.9l1.6,1.6c0.7,0.8,3,2,5,0.5
		c0.2-0.1,2.6-1.7,1.8-4.2h3v-3.5c0-0.4,0.5-0.7,1.1-0.7h2.8c0.6,0,1.1,0.3,1.1,0.7v11.1c0,0.4-0.5,0.7-1.1,0.7h-2.8
		c-0.6,0-1.1-0.3-1.1-0.7v-1.6H31.5z"/>
	<path class="st1" d="M12.6,248.1c-1.2,0-2.2,1-2.2,2.2v1.4h26.1v-1.4c0-1.2-1-2.2-2.2-2.2H12.6z M12.6,249.2h21.8
		c0.6,0,1.1,0.5,1.1,1.1v0.3H11.5v-0.3C11.5,249.7,12,249.2,12.6,249.2z"/>
	<path class="st1" d="M40.8,253.2H6.1c-1.3,0-2.3,1.3-2.3,2.9v0.7h0.1h38.7l0.6,0v-0.7C43.1,254.5,42.1,253.2,40.8,253.2z
		 M6.1,254.5h34.7c0.5,0,0.9,0.4,1,0.9H5C5.2,254.9,5.6,254.5,6.1,254.5z"/>
</g>
<g>
	<path class="st1" d="M65.5,211.4c0-1.1-1-1.9-2.3-1.9h-3c-1.3,0-2.3,0.9-2.3,1.9v11.8c0,1.1,1,1.9,2.3,1.9h3c1.3,0,2.3-0.9,2.3-1.9
		v-0.9h1.8l1.9,1.9h3.1l-0.9-1c-0.2-0.2-0.3-0.4-0.4-0.6l-0.1-0.3l-0.2-0.1c-1-0.5-1.3-1.4-1.4-2.1c-0.2-1,0.6-1.9,0.7-2l2.8-2.5h5
		l2.2,2.1c0.4,0.4,0.9,0.7,1.5,0.7c0.8,0,1.2-0.4,1.3-0.5c0.5-0.4,0.8-1,0.8-1.5c0-0.9-0.6-1.5-0.8-1.6l-3-3
		c-0.7-0.7-2.3-0.7-2.5-0.7h-4.1c-1.5,0-2.6,0.9-3,1.3h-4.7V211.4z M70.5,213.6l0.3,0l0.2-0.2c0,0,1-1.1,2.3-1.1h4.1
		c0.4,0,1.4,0.1,1.6,0.4l3,3l0,0c0,0,0.4,0.3,0.4,0.7c0,0.2-0.1,0.4-0.4,0.6l0,0c0,0-0.1,0.2-0.5,0.2c-0.2,0-0.4-0.1-0.7-0.3
		l-2.5-2.4h-5.9l-3.2,2.8l0,0c-0.1,0.1-1.3,1.4-1,3c0.2,1,0.9,1.9,2.1,2.6c0,0,0,0.1,0,0.1h-0.5l-1.9-1.9h-3.4v2.1
		c0,0.4-0.5,0.8-1.2,0.8h-3c-0.6,0-1.2-0.3-1.2-0.8v-11.8c0-0.4,0.5-0.8,1.2-0.8h3c0.6,0,1.2,0.3,1.2,0.8v2.2H70.5z"/>
	<path class="st1" d="M84.2,215.5c1.1,2.3-1,3.6-1.1,3.6l0,0c-1.6,1.2-3.4-0.2-3.5-0.3l-2-2h-3.8l-2.1,1.7c-1.4,1.3-1,2.5-0.6,3.1
		c0.5,0.6,1.1,0.7,1.5,0.8c0,0.1,0,0.2,0,0.3c0,0.7,0.5,1.2,0.5,1.2c0.5,0.5,1.2,0.6,1.8,0.6v7.9c-0.6,0.4-1.1,1.3-1.1,2.3v10.6
		c0,1,0.6,1.8,1.5,1.8h3.5c0.8,0,1.5-0.8,1.5-1.8v-10.6c0-1-0.4-1.8-1.1-2.3v-4.1c0.7,0.1,1.4-0.3,1.6-0.5l4.8-4.7h2v0.5
		c0,1,1,1.8,2.2,1.8h2.8c1.2,0,2.2-0.8,2.2-1.8v-11.1c0-1-1-1.8-2.2-1.8h-2.8c-1.2,0-2.2,0.8-2.2,1.8v2.3h-3.6L84.2,215.5z
		 M85,221.9l-5.1,5c0,0-0.5,0.5-1.1,0.1l-0.9-0.6v6.8l0.4,0.1c0.4,0.1,0.7,0.8,0.7,1.4v10.6c0,0.4-0.2,0.7-0.3,0.7h-3.5
		c-0.1,0-0.3-0.3-0.3-0.7v-10.6c0-0.7,0.3-1.3,0.7-1.4l0.4-0.1v-9.1l0.8-0.8h-1.3l-0.6,0v0.1c-0.3,0-0.7,0-1-0.3
		c-0.1-0.1-0.4-0.5,0.2-1.1L77,219l-3.6,2.1c0,0-0.8,0.5-1.4-0.2c-0.1-0.1-0.5-0.7,0.4-1.5l1.8-1.4h2.9l1.6,1.6c0.7,0.8,3,2,5,0.5
		c0.2-0.1,2.6-1.7,1.8-4.2h3v-3.5c0-0.4,0.5-0.7,1.1-0.7h2.8c0.6,0,1.1,0.3,1.1,0.7v11.1c0,0.4-0.5,0.7-1.1,0.7h-2.8
		c-0.6,0-1.1-0.3-1.1-0.7v-1.6H85z"/>
	<path class="st1" d="M66.1,248.1c-1.2,0-2.2,1-2.2,2.2v1.4h26.1v-1.4c0-1.2-1-2.2-2.2-2.2H66.1z M66.1,249.2h21.8
		c0.6,0,1.1,0.5,1.1,1.1v0.3H65.1v-0.3C65.1,249.7,65.5,249.2,66.1,249.2z"/>
	<path class="st1" d="M94.4,253.2H59.6c-1.3,0-2.3,1.3-2.3,2.9v0.7h0.1h38.7l0.6,0v-0.7C96.7,254.5,95.7,253.2,94.4,253.2z
		 M59.6,254.5h34.7c0.5,0,0.9,0.4,1,0.9H58.6C58.8,254.9,59.2,254.5,59.6,254.5z"/>
</g>
<g>
	<path class="st1" d="M119.1,211.4c0-1.1-1-1.9-2.3-1.9h-3c-1.3,0-2.3,0.9-2.3,1.9v11.8c0,1.1,1,1.9,2.3,1.9h3
		c1.3,0,2.3-0.9,2.3-1.9v-0.9h1.8l1.9,1.9h3.1l-0.9-1c-0.2-0.2-0.3-0.4-0.4-0.6l-0.1-0.3l-0.2-0.1c-1-0.5-1.3-1.4-1.4-2.1
		c-0.2-1,0.6-1.9,0.7-2l2.8-2.5h5l2.2,2.1c0.4,0.4,0.9,0.7,1.5,0.7c0.8,0,1.2-0.4,1.3-0.5c0.5-0.4,0.8-1,0.8-1.5
		c0-0.9-0.6-1.5-0.8-1.6l-3-3c-0.7-0.7-2.3-0.7-2.5-0.7h-4.1c-1.5,0-2.6,0.9-3,1.3h-4.7V211.4z M124,213.6l0.3,0l0.2-0.2
		c0,0,1-1.1,2.3-1.1h4.1c0.4,0,1.4,0.1,1.6,0.4l3,3l0,0c0,0,0.4,0.3,0.4,0.7c0,0.2-0.1,0.4-0.4,0.6l0,0c0,0-0.1,0.2-0.5,0.2
		c-0.2,0-0.4-0.1-0.7-0.3l-2.5-2.4h-5.9l-3.2,2.8l0,0c-0.1,0.1-1.3,1.4-1,3c0.2,1,0.9,1.9,2.1,2.6c0,0,0,0.1,0,0.1h-0.5l-1.9-1.9
		h-3.4v2.1c0,0.4-0.5,0.8-1.2,0.8h-3c-0.6,0-1.2-0.3-1.2-0.8v-11.8c0-0.4,0.5-0.8,1.2-0.8h3c0.6,0,1.2,0.3,1.2,0.8v2.2H124z"/>
	<path class="st1" d="M137.7,215.5c1.1,2.3-1,3.6-1.1,3.6l0,0c-1.6,1.2-3.4-0.2-3.5-0.3l-2-2h-3.8l-2.1,1.7c-1.4,1.3-1,2.5-0.6,3.1
		c0.5,0.6,1.1,0.7,1.5,0.8c0,0.1,0,0.2,0,0.3c0,0.7,0.5,1.2,0.5,1.2c0.5,0.5,1.2,0.6,1.8,0.6v7.9c-0.6,0.4-1.1,1.3-1.1,2.3v10.6
		c0,1,0.6,1.8,1.5,1.8h3.5c0.8,0,1.5-0.8,1.5-1.8v-10.6c0-1-0.4-1.8-1.1-2.3v-4.1c0.7,0.1,1.4-0.3,1.6-0.5l4.8-4.7h2v0.5
		c0,1,1,1.8,2.2,1.8h2.8c1.2,0,2.2-0.8,2.2-1.8v-11.1c0-1-1-1.8-2.2-1.8h-2.8c-1.2,0-2.2,0.8-2.2,1.8v2.3h-3.6L137.7,215.5z
		 M138.6,221.9l-5.1,5c0,0-0.5,0.5-1.1,0.1l-0.9-0.6v6.8l0.4,0.1c0.4,0.1,0.7,0.8,0.7,1.4v10.6c0,0.4-0.2,0.7-0.3,0.7h-3.5
		c-0.1,0-0.3-0.3-0.3-0.7v-10.6c0-0.7,0.3-1.3,0.7-1.4l0.4-0.1v-9.1l0.8-0.8h-1.3l-0.6,0v0.1c-0.3,0-0.7,0-1-0.3
		c-0.1-0.1-0.4-0.5,0.2-1.1l2.9-2.9l-3.6,2.1c0,0-0.8,0.5-1.4-0.2c-0.1-0.1-0.5-0.7,0.4-1.5l1.8-1.4h2.9l1.6,1.6c0.7,0.8,3,2,5,0.5
		c0.2-0.1,2.6-1.7,1.8-4.2h3v-3.5c0-0.4,0.5-0.7,1.1-0.7h2.8c0.6,0,1.1,0.3,1.1,0.7v11.1c0,0.4-0.5,0.7-1.1,0.7h-2.8
		c-0.6,0-1.1-0.3-1.1-0.7v-1.6H138.6z"/>
	<path class="st1" d="M119.7,248.1c-1.2,0-2.2,1-2.2,2.2v1.4h26.1v-1.4c0-1.2-1-2.2-2.2-2.2H119.7z M119.7,249.2h21.8
		c0.6,0,1.1,0.5,1.1,1.1v0.3h-23.9v-0.3C118.6,249.7,119.1,249.2,119.7,249.2z"/>
	<path class="st1" d="M147.9,253.2h-34.7c-1.3,0-2.3,1.3-2.3,2.9v0.7h0.1h38.7l0.6,0v-0.7C150.2,254.5,149.2,253.2,147.9,253.2z
		 M113.2,254.5h34.7c0.5,0,0.9,0.4,1,0.9h-36.8C112.3,254.9,112.7,254.5,113.2,254.5z"/>
</g>
<g>
	<path class="st1" d="M172.6,211.4c0-1.1-1-1.9-2.3-1.9h-3c-1.3,0-2.3,0.9-2.3,1.9v11.8c0,1.1,1,1.9,2.3,1.9h3
		c1.3,0,2.3-0.9,2.3-1.9v-0.9h1.8l1.9,1.9h3.1l-0.9-1c-0.2-0.2-0.3-0.4-0.4-0.6l-0.1-0.3l-0.2-0.1c-1-0.5-1.3-1.4-1.4-2.1
		c-0.2-1,0.6-1.9,0.7-2l2.8-2.5h5l2.2,2.1c0.4,0.4,0.9,0.7,1.5,0.7c0.8,0,1.2-0.4,1.3-0.5c0.5-0.4,0.8-1,0.8-1.5
		c0-0.9-0.6-1.5-0.8-1.6l-3-3c-0.7-0.7-2.3-0.7-2.5-0.7h-4.1c-1.5,0-2.6,0.9-3,1.3h-4.7V211.4z M177.5,213.6l0.3,0l0.2-0.2
		c0,0,1-1.1,2.3-1.1h4.1c0.4,0,1.4,0.1,1.6,0.4l3,3l0,0c0,0,0.4,0.3,0.4,0.7c0,0.2-0.1,0.4-0.4,0.6l0,0c0,0-0.1,0.2-0.5,0.2
		c-0.2,0-0.4-0.1-0.7-0.3l-2.5-2.4h-5.9l-3.2,2.8l0,0c-0.1,0.1-1.3,1.4-1,3c0.2,1,0.9,1.9,2.1,2.6c0,0,0,0.1,0,0.1h-0.5l-1.9-1.9
		h-3.4v2.1c0,0.4-0.5,0.8-1.2,0.8h-3c-0.6,0-1.2-0.3-1.2-0.8v-11.8c0-0.4,0.5-0.8,1.2-0.8h3c0.6,0,1.2,0.3,1.2,0.8v2.2H177.5z"/>
	<path class="st1" d="M191.3,215.5c1.1,2.3-1,3.6-1.1,3.6l0,0c-1.6,1.2-3.4-0.2-3.5-0.3l-2-2h-3.8l-2.1,1.7c-1.4,1.3-1,2.5-0.6,3.1
		c0.5,0.6,1.1,0.7,1.5,0.8c0,0.1,0,0.2,0,0.3c0,0.7,0.5,1.2,0.5,1.2c0.5,0.5,1.2,0.6,1.8,0.6v7.9c-0.6,0.4-1.1,1.3-1.1,2.3v10.6
		c0,1,0.6,1.8,1.5,1.8h3.5c0.8,0,1.5-0.8,1.5-1.8v-10.6c0-1-0.4-1.8-1.1-2.3v-4.1c0.7,0.1,1.4-0.3,1.6-0.5l4.8-4.7h2v0.5
		c0,1,1,1.8,2.2,1.8h2.8c1.2,0,2.2-0.8,2.2-1.8v-11.1c0-1-1-1.8-2.2-1.8h-2.8c-1.2,0-2.2,0.8-2.2,1.8v2.3h-3.6L191.3,215.5z
		 M192.1,221.9l-5.1,5c0,0-0.5,0.5-1.1,0.1l-0.9-0.6v6.8l0.4,0.1c0.4,0.1,0.7,0.8,0.7,1.4v10.6c0,0.4-0.2,0.7-0.3,0.7h-3.5
		c-0.1,0-0.3-0.3-0.3-0.7v-10.6c0-0.7,0.3-1.3,0.7-1.4l0.4-0.1v-9.1l0.8-0.8h-1.3l-0.6,0v0.1c-0.3,0-0.7,0-1-0.3
		c-0.1-0.1-0.4-0.5,0.2-1.1l2.9-2.9l-3.6,2.1c0,0-0.8,0.5-1.4-0.2c-0.1-0.1-0.5-0.7,0.4-1.5l1.8-1.4h2.9l1.6,1.6c0.7,0.8,3,2,5,0.5
		c0.2-0.1,2.6-1.7,1.8-4.2h3v-3.5c0-0.4,0.5-0.7,1.1-0.7h2.8c0.6,0,1.1,0.3,1.1,0.7v11.1c0,0.4-0.5,0.7-1.1,0.7h-2.8
		c-0.6,0-1.1-0.3-1.1-0.7v-1.6H192.1z"/>
	<path class="st1" d="M173.2,248.1c-1.2,0-2.2,1-2.2,2.2v1.4h26.1v-1.4c0-1.2-1-2.2-2.2-2.2H173.2z M173.2,249.2H195
		c0.6,0,1.1,0.5,1.1,1.1v0.3h-23.9v-0.3C172.2,249.7,172.6,249.2,173.2,249.2z"/>
	<path class="st1" d="M201.5,253.2h-34.7c-1.3,0-2.3,1.3-2.3,2.9v0.7h0.1h38.7l0.6,0v-0.7C203.8,254.5,202.7,253.2,201.5,253.2z
		 M166.7,254.5h34.7c0.5,0,0.9,0.4,1,0.9h-36.8C165.9,254.9,166.3,254.5,166.7,254.5z"/>
</g>
<g>
	<path class="st1" d="M226.2,211.4c0-1.1-1-1.9-2.3-1.9h-3c-1.3,0-2.3,0.9-2.3,1.9v11.8c0,1.1,1,1.9,2.3,1.9h3
		c1.3,0,2.3-0.9,2.3-1.9v-0.9h1.8l1.9,1.9h3.1l-0.9-1c-0.2-0.2-0.3-0.4-0.4-0.6l-0.1-0.3l-0.2-0.1c-1-0.5-1.3-1.4-1.4-2.1
		c-0.2-1,0.6-1.9,0.7-2l2.8-2.5h5l2.2,2.1c0.4,0.4,0.9,0.7,1.5,0.7c0.8,0,1.2-0.4,1.3-0.5c0.5-0.4,0.8-1,0.8-1.5
		c0-0.9-0.6-1.5-0.8-1.6l-3-3c-0.7-0.7-2.3-0.7-2.5-0.7h-4.1c-1.5,0-2.6,0.9-3,1.3h-4.7V211.4z M231.1,213.6l0.3,0l0.2-0.2
		c0,0,1-1.1,2.3-1.1h4.1c0.4,0,1.4,0.1,1.6,0.4l3,3l0,0c0,0,0.4,0.3,0.4,0.7c0,0.2-0.1,0.4-0.4,0.6l0,0c0,0-0.1,0.2-0.5,0.2
		c-0.2,0-0.4-0.1-0.7-0.3l-2.5-2.4h-5.9l-3.2,2.8l0,0c-0.1,0.1-1.3,1.4-1,3c0.2,1,0.9,1.9,2.1,2.6c0,0,0,0.1,0,0.1h-0.5l-1.9-1.9
		H225v2.1c0,0.4-0.5,0.8-1.2,0.8h-3c-0.6,0-1.2-0.3-1.2-0.8v-11.8c0-0.4,0.5-0.8,1.2-0.8h3c0.6,0,1.2,0.3,1.2,0.8v2.2H231.1z"/>
	<path class="st1" d="M244.8,215.5c1.1,2.3-1,3.6-1.1,3.6l0,0c-1.6,1.2-3.4-0.2-3.5-0.3l-2-2h-3.8l-2.1,1.7c-1.4,1.3-1,2.5-0.6,3.1
		c0.5,0.6,1.1,0.7,1.5,0.8c0,0.1,0,0.2,0,0.3c0,0.7,0.5,1.2,0.5,1.2c0.5,0.5,1.2,0.6,1.8,0.6v7.9c-0.6,0.4-1.1,1.3-1.1,2.3v10.6
		c0,1,0.6,1.8,1.5,1.8h3.5c0.8,0,1.5-0.8,1.5-1.8v-10.6c0-1-0.4-1.8-1.1-2.3v-4.1c0.7,0.1,1.4-0.3,1.6-0.5l4.8-4.7h2v0.5
		c0,1,1,1.8,2.2,1.8h2.8c1.2,0,2.2-0.8,2.2-1.8v-11.1c0-1-1-1.8-2.2-1.8h-2.8c-1.2,0-2.2,0.8-2.2,1.8v2.3h-3.6L244.8,215.5z
		 M245.6,221.9l-5.1,5c0,0-0.5,0.5-1.1,0.1l-0.9-0.6v6.8l0.4,0.1c0.4,0.1,0.7,0.8,0.7,1.4v10.6c0,0.4-0.2,0.7-0.3,0.7h-3.5
		c-0.1,0-0.3-0.3-0.3-0.7v-10.6c0-0.7,0.3-1.3,0.7-1.4l0.4-0.1v-9.1l0.8-0.8H236l-0.6,0v0.1c-0.3,0-0.7,0-1-0.3
		c-0.1-0.1-0.4-0.5,0.2-1.1l2.9-2.9l-3.6,2.1c0,0-0.8,0.5-1.4-0.2c-0.1-0.1-0.5-0.7,0.4-1.5l1.8-1.4h2.9l1.6,1.6c0.7,0.8,3,2,5,0.5
		c0.2-0.1,2.6-1.7,1.8-4.2h3v-3.5c0-0.4,0.5-0.7,1.1-0.7h2.8c0.6,0,1.1,0.3,1.1,0.7v11.1c0,0.4-0.5,0.7-1.1,0.7h-2.8
		c-0.6,0-1.1-0.3-1.1-0.7v-1.6H245.6z"/>
	<path class="st1" d="M226.8,248.1c-1.2,0-2.2,1-2.2,2.2v1.4h26.1v-1.4c0-1.2-1-2.2-2.2-2.2H226.8z M226.8,249.2h21.8
		c0.6,0,1.1,0.5,1.1,1.1v0.3h-23.9v-0.3C225.7,249.7,226.2,249.2,226.8,249.2z"/>
	<path class="st1" d="M255,253.2h-34.7c-1.3,0-2.3,1.3-2.3,2.9v0.7h0.1h38.7l0.6,0v-0.7C257.3,254.5,256.3,253.2,255,253.2z
		 M220.3,254.5H255c0.5,0,0.9,0.4,1,0.9h-36.8C219.4,254.9,219.8,254.5,220.3,254.5z"/>
</g>
<g>
	<path class="st1" d="M12,159.6c0-1.1-1-1.9-2.3-1.9h-3c-1.3,0-2.3,0.9-2.3,1.9v11.8c0,1.1,1,1.9,2.3,1.9h3c1.3,0,2.3-0.9,2.3-1.9
		v-0.9h1.8l1.9,1.9h3.1l-0.9-1c-0.2-0.2-0.3-0.4-0.4-0.6l-0.1-0.3l-0.2-0.1c-1-0.5-1.3-1.4-1.4-2.1c-0.2-1,0.6-1.9,0.7-2l2.8-2.5h5
		l2.2,2.1c0.4,0.4,0.9,0.7,1.5,0.7c0.8,0,1.2-0.4,1.3-0.5c0.5-0.4,0.8-1,0.8-1.5c0-0.9-0.6-1.5-0.8-1.6l-3-3
		c-0.7-0.7-2.3-0.7-2.5-0.7h-4.1c-1.5,0-2.6,0.9-3,1.3H12V159.6z M16.9,161.7l0.3,0l0.2-0.2c0,0,1-1.1,2.3-1.1h4.1
		c0.4,0,1.4,0.1,1.6,0.4l3,3l0,0c0,0,0.4,0.3,0.4,0.7c0,0.2-0.1,0.4-0.4,0.6l0,0c0,0-0.1,0.2-0.5,0.2c-0.2,0-0.4-0.1-0.7-0.3
		l-2.5-2.4h-5.9l-3.2,2.8l0,0c-0.1,0.1-1.3,1.4-1,3c0.2,1,0.9,1.9,2.1,2.6c0,0,0,0.1,0,0.1h-0.5l-1.9-1.9h-3.4v2.1
		c0,0.4-0.5,0.8-1.2,0.8h-3c-0.6,0-1.2-0.3-1.2-0.8v-11.8c0-0.4,0.5-0.8,1.2-0.8h3c0.6,0,1.2,0.3,1.2,0.8v2.2H16.9z"/>
	<path class="st1" d="M30.7,163.7c1.1,2.3-1,3.6-1.1,3.6l0,0c-1.6,1.2-3.4-0.2-3.5-0.3l-2-2h-3.8l-2.1,1.7c-1.4,1.3-1,2.5-0.6,3.1
		c0.5,0.6,1.1,0.7,1.5,0.8c0,0.1,0,0.2,0,0.3c0,0.7,0.5,1.2,0.5,1.2c0.5,0.5,1.2,0.6,1.8,0.6v7.9c-0.6,0.4-1.1,1.3-1.1,2.3v10.6
		c0,1,0.6,1.8,1.5,1.8h3.5c0.8,0,1.5-0.8,1.5-1.8v-10.6c0-1-0.4-1.8-1.1-2.3v-4.1c0.7,0.1,1.4-0.3,1.6-0.5l4.8-4.7h2v0.5
		c0,1,1,1.8,2.2,1.8h2.8c1.2,0,2.2-0.8,2.2-1.8v-11.1c0-1-1-1.8-2.2-1.8h-2.8c-1.2,0-2.2,0.8-2.2,1.8v2.3h-3.6L30.7,163.7z
		 M31.5,170.1l-5.1,5c0,0-0.5,0.5-1.1,0.1l-0.9-0.6v6.8l0.4,0.1c0.4,0.1,0.7,0.8,0.7,1.4v10.6c0,0.4-0.2,0.7-0.3,0.7h-3.5
		c-0.1,0-0.3-0.3-0.3-0.7v-10.6c0-0.7,0.3-1.3,0.7-1.4l0.4-0.1v-9.1l0.8-0.8h-1.3l-0.6,0v0.1c-0.3,0-0.7,0-1-0.3
		c-0.1-0.1-0.4-0.5,0.2-1.1l2.9-2.9l-3.6,2.1c0,0-0.8,0.5-1.4-0.2c-0.1-0.1-0.5-0.7,0.4-1.5l1.8-1.4h2.9l1.6,1.6c0.7,0.8,3,2,5,0.5
		c0.2-0.1,2.6-1.7,1.8-4.2h3v-3.5c0-0.4,0.5-0.7,1.1-0.7h2.8c0.6,0,1.1,0.3,1.1,0.7v11.1c0,0.4-0.5,0.7-1.1,0.7h-2.8
		c-0.6,0-1.1-0.3-1.1-0.7v-1.6H31.5z"/>
	<path class="st1" d="M12.6,196.3c-1.2,0-2.2,1-2.2,2.2v1.4h26.1v-1.4c0-1.2-1-2.2-2.2-2.2H12.6z M12.6,197.4h21.8
		c0.6,0,1.1,0.5,1.1,1.1v0.3H11.5v-0.3C11.5,197.9,12,197.4,12.6,197.4z"/>
	<path class="st1" d="M40.8,201.4H6.1c-1.3,0-2.3,1.3-2.3,2.9v0.7h0.1h38.7l0.6,0v-0.7C43.1,202.7,42.1,201.4,40.8,201.4z
		 M6.1,202.7h34.7c0.5,0,0.9,0.4,1,0.9H5C5.2,203.1,5.6,202.7,6.1,202.7z"/>
</g>
<g>
	<path class="st1" d="M65.5,159.6c0-1.1-1-1.9-2.3-1.9h-3c-1.3,0-2.3,0.9-2.3,1.9v11.8c0,1.1,1,1.9,2.3,1.9h3c1.3,0,2.3-0.9,2.3-1.9
		v-0.9h1.8l1.9,1.9h3.1l-0.9-1c-0.2-0.2-0.3-0.4-0.4-0.6l-0.1-0.3l-0.2-0.1c-1-0.5-1.3-1.4-1.4-2.1c-0.2-1,0.6-1.9,0.7-2l2.8-2.5h5
		l2.2,2.1c0.4,0.4,0.9,0.7,1.5,0.7c0.8,0,1.2-0.4,1.3-0.5c0.5-0.4,0.8-1,0.8-1.5c0-0.9-0.6-1.5-0.8-1.6l-3-3
		c-0.7-0.7-2.3-0.7-2.5-0.7h-4.1c-1.5,0-2.6,0.9-3,1.3h-4.7V159.6z M70.5,161.7l0.3,0l0.2-0.2c0,0,1-1.1,2.3-1.1h4.1
		c0.4,0,1.4,0.1,1.6,0.4l3,3l0,0c0,0,0.4,0.3,0.4,0.7c0,0.2-0.1,0.4-0.4,0.6l0,0c0,0-0.1,0.2-0.5,0.2c-0.2,0-0.4-0.1-0.7-0.3
		l-2.5-2.4h-5.9l-3.2,2.8l0,0c-0.1,0.1-1.3,1.4-1,3c0.2,1,0.9,1.9,2.1,2.6c0,0,0,0.1,0,0.1h-0.5l-1.9-1.9h-3.4v2.1
		c0,0.4-0.5,0.8-1.2,0.8h-3c-0.6,0-1.2-0.3-1.2-0.8v-11.8c0-0.4,0.5-0.8,1.2-0.8h3c0.6,0,1.2,0.3,1.2,0.8v2.2H70.5z"/>
	<path class="st1" d="M84.2,163.7c1.1,2.3-1,3.6-1.1,3.6l0,0c-1.6,1.2-3.4-0.2-3.5-0.3l-2-2h-3.8l-2.1,1.7c-1.4,1.3-1,2.5-0.6,3.1
		c0.5,0.6,1.1,0.7,1.5,0.8c0,0.1,0,0.2,0,0.3c0,0.7,0.5,1.2,0.5,1.2c0.5,0.5,1.2,0.6,1.8,0.6v7.9c-0.6,0.4-1.1,1.3-1.1,2.3v10.6
		c0,1,0.6,1.8,1.5,1.8h3.5c0.8,0,1.5-0.8,1.5-1.8v-10.6c0-1-0.4-1.8-1.1-2.3v-4.1c0.7,0.1,1.4-0.3,1.6-0.5l4.8-4.7h2v0.5
		c0,1,1,1.8,2.2,1.8h2.8c1.2,0,2.2-0.8,2.2-1.8v-11.1c0-1-1-1.8-2.2-1.8h-2.8c-1.2,0-2.2,0.8-2.2,1.8v2.3h-3.6L84.2,163.7z
		 M85,170.1l-5.1,5c0,0-0.5,0.5-1.1,0.1l-0.9-0.6v6.8l0.4,0.1c0.4,0.1,0.7,0.8,0.7,1.4v10.6c0,0.4-0.2,0.7-0.3,0.7h-3.5
		c-0.1,0-0.3-0.3-0.3-0.7v-10.6c0-0.7,0.3-1.3,0.7-1.4l0.4-0.1v-9.1l0.8-0.8h-1.3l-0.6,0v0.1c-0.3,0-0.7,0-1-0.3
		c-0.1-0.1-0.4-0.5,0.2-1.1l2.9-2.9l-3.6,2.1c0,0-0.8,0.5-1.4-0.2c-0.1-0.1-0.5-0.7,0.4-1.5l1.8-1.4h2.9l1.6,1.6c0.7,0.8,3,2,5,0.5
		c0.2-0.1,2.6-1.7,1.8-4.2h3v-3.5c0-0.4,0.5-0.7,1.1-0.7h2.8c0.6,0,1.1,0.3,1.1,0.7v11.1c0,0.4-0.5,0.7-1.1,0.7h-2.8
		c-0.6,0-1.1-0.3-1.1-0.7v-1.6H85z"/>
	<path class="st1" d="M66.1,196.3c-1.2,0-2.2,1-2.2,2.2v1.4h26.1v-1.4c0-1.2-1-2.2-2.2-2.2H66.1z M66.1,197.4h21.8
		c0.6,0,1.1,0.5,1.1,1.1v0.3H65.1v-0.3C65.1,197.9,65.5,197.4,66.1,197.4z"/>
	<path class="st1" d="M94.4,201.4H59.6c-1.3,0-2.3,1.3-2.3,2.9v0.7h0.1h38.7l0.6,0v-0.7C96.7,202.7,95.7,201.4,94.4,201.4z
		 M59.6,202.7h34.7c0.5,0,0.9,0.4,1,0.9H58.6C58.8,203.1,59.2,202.7,59.6,202.7z"/>
</g>
<g>
	<path class="st1" d="M119.1,159.6c0-1.1-1-1.9-2.3-1.9h-3c-1.3,0-2.3,0.9-2.3,1.9v11.8c0,1.1,1,1.9,2.3,1.9h3
		c1.3,0,2.3-0.9,2.3-1.9v-0.9h1.8l1.9,1.9h3.1l-0.9-1c-0.2-0.2-0.3-0.4-0.4-0.6l-0.1-0.3l-0.2-0.1c-1-0.5-1.3-1.4-1.4-2.1
		c-0.2-1,0.6-1.9,0.7-2l2.8-2.5h5l2.2,2.1c0.4,0.4,0.9,0.7,1.5,0.7c0.8,0,1.2-0.4,1.3-0.5c0.5-0.4,0.8-1,0.8-1.5
		c0-0.9-0.6-1.5-0.8-1.6l-3-3c-0.7-0.7-2.3-0.7-2.5-0.7h-4.1c-1.5,0-2.6,0.9-3,1.3h-4.7V159.6z M124,161.7l0.3,0l0.2-0.2
		c0,0,1-1.1,2.3-1.1h4.1c0.4,0,1.4,0.1,1.6,0.4l3,3l0,0c0,0,0.4,0.3,0.4,0.7c0,0.2-0.1,0.4-0.4,0.6l0,0c0,0-0.1,0.2-0.5,0.2
		c-0.2,0-0.4-0.1-0.7-0.3l-2.5-2.4h-5.9l-3.2,2.8l0,0c-0.1,0.1-1.3,1.4-1,3c0.2,1,0.9,1.9,2.1,2.6c0,0,0,0.1,0,0.1h-0.5l-1.9-1.9
		h-3.4v2.1c0,0.4-0.5,0.8-1.2,0.8h-3c-0.6,0-1.2-0.3-1.2-0.8v-11.8c0-0.4,0.5-0.8,1.2-0.8h3c0.6,0,1.2,0.3,1.2,0.8v2.2H124z"/>
	<path class="st1" d="M137.7,163.7c1.1,2.3-1,3.6-1.1,3.6l0,0c-1.6,1.2-3.4-0.2-3.5-0.3l-2-2h-3.8l-2.1,1.7c-1.4,1.3-1,2.5-0.6,3.1
		c0.5,0.6,1.1,0.7,1.5,0.8c0,0.1,0,0.2,0,0.3c0,0.7,0.5,1.2,0.5,1.2c0.5,0.5,1.2,0.6,1.8,0.6v7.9c-0.6,0.4-1.1,1.3-1.1,2.3v10.6
		c0,1,0.6,1.8,1.5,1.8h3.5c0.8,0,1.5-0.8,1.5-1.8v-10.6c0-1-0.4-1.8-1.1-2.3v-4.1c0.7,0.1,1.4-0.3,1.6-0.5l4.8-4.7h2v0.5
		c0,1,1,1.8,2.2,1.8h2.8c1.2,0,2.2-0.8,2.2-1.8v-11.1c0-1-1-1.8-2.2-1.8h-2.8c-1.2,0-2.2,0.8-2.2,1.8v2.3h-3.6L137.7,163.7z
		 M138.6,170.1l-5.1,5c0,0-0.5,0.5-1.1,0.1l-0.9-0.6v6.8l0.4,0.1c0.4,0.1,0.7,0.8,0.7,1.4v10.6c0,0.4-0.2,0.7-0.3,0.7h-3.5
		c-0.1,0-0.3-0.3-0.3-0.7v-10.6c0-0.7,0.3-1.3,0.7-1.4l0.4-0.1v-9.1l0.8-0.8h-1.3l-0.6,0v0.1c-0.3,0-0.7,0-1-0.3
		c-0.1-0.1-0.4-0.5,0.2-1.1l2.9-2.9l-3.6,2.1c0,0-0.8,0.5-1.4-0.2c-0.1-0.1-0.5-0.7,0.4-1.5l1.8-1.4h2.9l1.6,1.6c0.7,0.8,3,2,5,0.5
		c0.2-0.1,2.6-1.7,1.8-4.2h3v-3.5c0-0.4,0.5-0.7,1.1-0.7h2.8c0.6,0,1.1,0.3,1.1,0.7v11.1c0,0.4-0.5,0.7-1.1,0.7h-2.8
		c-0.6,0-1.1-0.3-1.1-0.7v-1.6H138.6z"/>
	<path class="st1" d="M119.7,196.3c-1.2,0-2.2,1-2.2,2.2v1.4h26.1v-1.4c0-1.2-1-2.2-2.2-2.2H119.7z M119.7,197.4h21.8
		c0.6,0,1.1,0.5,1.1,1.1v0.3h-23.9v-0.3C118.6,197.9,119.1,197.4,119.7,197.4z"/>
	<path class="st1" d="M147.9,201.4h-34.7c-1.3,0-2.3,1.3-2.3,2.9v0.7h0.1h38.7l0.6,0v-0.7C150.2,202.7,149.2,201.4,147.9,201.4z
		 M113.2,202.7h34.7c0.5,0,0.9,0.4,1,0.9h-36.8C112.3,203.1,112.7,202.7,113.2,202.7z"/>
</g>
<g>
	<path class="st1" d="M172.6,159.6c0-1.1-1-1.9-2.3-1.9h-3c-1.3,0-2.3,0.9-2.3,1.9v11.8c0,1.1,1,1.9,2.3,1.9h3
		c1.3,0,2.3-0.9,2.3-1.9v-0.9h1.8l1.9,1.9h3.1l-0.9-1c-0.2-0.2-0.3-0.4-0.4-0.6l-0.1-0.3l-0.2-0.1c-1-0.5-1.3-1.4-1.4-2.1
		c-0.2-1,0.6-1.9,0.7-2l2.8-2.5h5l2.2,2.1c0.4,0.4,0.9,0.7,1.5,0.7c0.8,0,1.2-0.4,1.3-0.5c0.5-0.4,0.8-1,0.8-1.5
		c0-0.9-0.6-1.5-0.8-1.6l-3-3c-0.7-0.7-2.3-0.7-2.5-0.7h-4.1c-1.5,0-2.6,0.9-3,1.3h-4.7V159.6z M177.5,161.7l0.3,0l0.2-0.2
		c0,0,1-1.1,2.3-1.1h4.1c0.4,0,1.4,0.1,1.6,0.4l3,3l0,0c0,0,0.4,0.3,0.4,0.7c0,0.2-0.1,0.4-0.4,0.6l0,0c0,0-0.1,0.2-0.5,0.2
		c-0.2,0-0.4-0.1-0.7-0.3l-2.5-2.4h-5.9l-3.2,2.8l0,0c-0.1,0.1-1.3,1.4-1,3c0.2,1,0.9,1.9,2.1,2.6c0,0,0,0.1,0,0.1h-0.5l-1.9-1.9
		h-3.4v2.1c0,0.4-0.5,0.8-1.2,0.8h-3c-0.6,0-1.2-0.3-1.2-0.8v-11.8c0-0.4,0.5-0.8,1.2-0.8h3c0.6,0,1.2,0.3,1.2,0.8v2.2H177.5z"/>
	<path class="st1" d="M191.3,163.7c1.1,2.3-1,3.6-1.1,3.6l0,0c-1.6,1.2-3.4-0.2-3.5-0.3l-2-2h-3.8l-2.1,1.7c-1.4,1.3-1,2.5-0.6,3.1
		c0.5,0.6,1.1,0.7,1.5,0.8c0,0.1,0,0.2,0,0.3c0,0.7,0.5,1.2,0.5,1.2c0.5,0.5,1.2,0.6,1.8,0.6v7.9c-0.6,0.4-1.1,1.3-1.1,2.3v10.6
		c0,1,0.6,1.8,1.5,1.8h3.5c0.8,0,1.5-0.8,1.5-1.8v-10.6c0-1-0.4-1.8-1.1-2.3v-4.1c0.7,0.1,1.4-0.3,1.6-0.5l4.8-4.7h2v0.5
		c0,1,1,1.8,2.2,1.8h2.8c1.2,0,2.2-0.8,2.2-1.8v-11.1c0-1-1-1.8-2.2-1.8h-2.8c-1.2,0-2.2,0.8-2.2,1.8v2.3h-3.6L191.3,163.7z
		 M192.1,170.1l-5.1,5c0,0-0.5,0.5-1.1,0.1l-0.9-0.6v6.8l0.4,0.1c0.4,0.1,0.7,0.8,0.7,1.4v10.6c0,0.4-0.2,0.7-0.3,0.7h-3.5
		c-0.1,0-0.3-0.3-0.3-0.7v-10.6c0-0.7,0.3-1.3,0.7-1.4l0.4-0.1v-9.1l0.8-0.8h-1.3l-0.6,0v0.1c-0.3,0-0.7,0-1-0.3
		c-0.1-0.1-0.4-0.5,0.2-1.1l2.9-2.9l-3.6,2.1c0,0-0.8,0.5-1.4-0.2c-0.1-0.1-0.5-0.7,0.4-1.5l1.8-1.4h2.9l1.6,1.6c0.7,0.8,3,2,5,0.5
		c0.2-0.1,2.6-1.7,1.8-4.2h3v-3.5c0-0.4,0.5-0.7,1.1-0.7h2.8c0.6,0,1.1,0.3,1.1,0.7v11.1c0,0.4-0.5,0.7-1.1,0.7h-2.8
		c-0.6,0-1.1-0.3-1.1-0.7v-1.6H192.1z"/>
	<path class="st1" d="M173.2,196.3c-1.2,0-2.2,1-2.2,2.2v1.4h26.1v-1.4c0-1.2-1-2.2-2.2-2.2H173.2z M173.2,197.4H195
		c0.6,0,1.1,0.5,1.1,1.1v0.3h-23.9v-0.3C172.2,197.9,172.6,197.4,173.2,197.4z"/>
	<path class="st1" d="M201.5,201.4h-34.7c-1.3,0-2.3,1.3-2.3,2.9v0.7h0.1h38.7l0.6,0v-0.7C203.8,202.7,202.7,201.4,201.5,201.4z
		 M166.7,202.7h34.7c0.5,0,0.9,0.4,1,0.9h-36.8C165.9,203.1,166.3,202.7,166.7,202.7z"/>
</g>
<g>
	<path class="st1" d="M226.2,159.6c0-1.1-1-1.9-2.3-1.9h-3c-1.3,0-2.3,0.9-2.3,1.9v11.8c0,1.1,1,1.9,2.3,1.9h3
		c1.3,0,2.3-0.9,2.3-1.9v-0.9h1.8l1.9,1.9h3.1l-0.9-1c-0.2-0.2-0.3-0.4-0.4-0.6l-0.1-0.3l-0.2-0.1c-1-0.5-1.3-1.4-1.4-2.1
		c-0.2-1,0.6-1.9,0.7-2l2.8-2.5h5l2.2,2.1c0.4,0.4,0.9,0.7,1.5,0.7c0.8,0,1.2-0.4,1.3-0.5c0.5-0.4,0.8-1,0.8-1.5
		c0-0.9-0.6-1.5-0.8-1.6l-3-3c-0.7-0.7-2.3-0.7-2.5-0.7h-4.1c-1.5,0-2.6,0.9-3,1.3h-4.7V159.6z M231.1,161.7l0.3,0l0.2-0.2
		c0,0,1-1.1,2.3-1.1h4.1c0.4,0,1.4,0.1,1.6,0.4l3,3l0,0c0,0,0.4,0.3,0.4,0.7c0,0.2-0.1,0.4-0.4,0.6l0,0c0,0-0.1,0.2-0.5,0.2
		c-0.2,0-0.4-0.1-0.7-0.3l-2.5-2.4h-5.9l-3.2,2.8l0,0c-0.1,0.1-1.3,1.4-1,3c0.2,1,0.9,1.9,2.1,2.6c0,0,0,0.1,0,0.1h-0.5l-1.9-1.9
		H225v2.1c0,0.4-0.5,0.8-1.2,0.8h-3c-0.6,0-1.2-0.3-1.2-0.8v-11.8c0-0.4,0.5-0.8,1.2-0.8h3c0.6,0,1.2,0.3,1.2,0.8v2.2H231.1z"/>
	<path class="st1" d="M244.8,163.7c1.1,2.3-1,3.6-1.1,3.6l0,0c-1.6,1.2-3.4-0.2-3.5-0.3l-2-2h-3.8l-2.1,1.7c-1.4,1.3-1,2.5-0.6,3.1
		c0.5,0.6,1.1,0.7,1.5,0.8c0,0.1,0,0.2,0,0.3c0,0.7,0.5,1.2,0.5,1.2c0.5,0.5,1.2,0.6,1.8,0.6v7.9c-0.6,0.4-1.1,1.3-1.1,2.3v10.6
		c0,1,0.6,1.8,1.5,1.8h3.5c0.8,0,1.5-0.8,1.5-1.8v-10.6c0-1-0.4-1.8-1.1-2.3v-4.1c0.7,0.1,1.4-0.3,1.6-0.5l4.8-4.7h2v0.5
		c0,1,1,1.8,2.2,1.8h2.8c1.2,0,2.2-0.8,2.2-1.8v-11.1c0-1-1-1.8-2.2-1.8h-2.8c-1.2,0-2.2,0.8-2.2,1.8v2.3h-3.6L244.8,163.7z
		 M245.6,170.1l-5.1,5c0,0-0.5,0.5-1.1,0.1l-0.9-0.6v6.8l0.4,0.1c0.4,0.1,0.7,0.8,0.7,1.4v10.6c0,0.4-0.2,0.7-0.3,0.7h-3.5
		c-0.1,0-0.3-0.3-0.3-0.7v-10.6c0-0.7,0.3-1.3,0.7-1.4l0.4-0.1v-9.1l0.8-0.8H236l-0.6,0v0.1c-0.3,0-0.7,0-1-0.3
		c-0.1-0.1-0.4-0.5,0.2-1.1l2.9-2.9l-3.6,2.1c0,0-0.8,0.5-1.4-0.2c-0.1-0.1-0.5-0.7,0.4-1.5l1.8-1.4h2.9l1.6,1.6c0.7,0.8,3,2,5,0.5
		c0.2-0.1,2.6-1.7,1.8-4.2h3v-3.5c0-0.4,0.5-0.7,1.1-0.7h2.8c0.6,0,1.1,0.3,1.1,0.7v11.1c0,0.4-0.5,0.7-1.1,0.7h-2.8
		c-0.6,0-1.1-0.3-1.1-0.7v-1.6H245.6z"/>
	<path class="st1" d="M226.8,196.3c-1.2,0-2.2,1-2.2,2.2v1.4h26.1v-1.4c0-1.2-1-2.2-2.2-2.2H226.8z M226.8,197.4h21.8
		c0.6,0,1.1,0.5,1.1,1.1v0.3h-23.9v-0.3C225.7,197.9,226.2,197.4,226.8,197.4z"/>
	<path class="st1" d="M255,201.4h-34.7c-1.3,0-2.3,1.3-2.3,2.9v0.7h0.1h38.7l0.6,0v-0.7C257.3,202.7,256.3,201.4,255,201.4z
		 M220.3,202.7H255c0.5,0,0.9,0.4,1,0.9h-36.8C219.4,203.1,219.8,202.7,220.3,202.7z"/>
</g>
<g>
	<path class="st1" d="M12,109.3c0-1.1-1-1.9-2.3-1.9h-3c-1.3,0-2.3,0.9-2.3,1.9v11.8c0,1.1,1,1.9,2.3,1.9h3c1.3,0,2.3-0.9,2.3-1.9
		v-0.9h1.8l1.9,1.9h3.1l-0.9-1c-0.2-0.2-0.3-0.4-0.4-0.6l-0.1-0.3l-0.2-0.1c-1-0.5-1.3-1.4-1.4-2.1c-0.2-1,0.6-1.9,0.7-2l2.8-2.5h5
		l2.2,2.1c0.4,0.4,0.9,0.7,1.5,0.7c0.8,0,1.2-0.4,1.3-0.5c0.5-0.4,0.8-1,0.8-1.5c0-0.9-0.6-1.5-0.8-1.6l-3-3
		c-0.7-0.7-2.3-0.7-2.5-0.7h-4.1c-1.5,0-2.6,0.9-3,1.3H12V109.3z M16.9,111.5l0.3,0l0.2-0.2c0,0,1-1.1,2.3-1.1h4.1
		c0.4,0,1.4,0.1,1.6,0.4l3,3l0,0c0,0,0.4,0.3,0.4,0.7c0,0.2-0.1,0.4-0.4,0.6l0,0c0,0-0.1,0.2-0.5,0.2c-0.2,0-0.4-0.1-0.7-0.3
		l-2.5-2.4h-5.9l-3.2,2.8l0,0c-0.1,0.1-1.3,1.4-1,3c0.2,1,0.9,1.9,2.1,2.6c0,0,0,0.1,0,0.1h-0.5l-1.9-1.9h-3.4v2.1
		c0,0.4-0.5,0.8-1.2,0.8h-3c-0.6,0-1.2-0.3-1.2-0.8v-11.8c0-0.4,0.5-0.8,1.2-0.8h3c0.6,0,1.2,0.3,1.2,0.8v2.2H16.9z"/>
	<path class="st1" d="M30.7,113.5c1.1,2.3-1,3.6-1.1,3.6l0,0c-1.6,1.2-3.4-0.2-3.5-0.3l-2-2h-3.8l-2.1,1.7c-1.4,1.3-1,2.5-0.6,3.1
		c0.5,0.6,1.1,0.7,1.5,0.8c0,0.1,0,0.2,0,0.3c0,0.7,0.5,1.2,0.5,1.2c0.5,0.5,1.2,0.6,1.8,0.6v7.9c-0.6,0.4-1.1,1.3-1.1,2.3v10.6
		c0,1,0.6,1.8,1.5,1.8h3.5c0.8,0,1.5-0.8,1.5-1.8v-10.6c0-1-0.4-1.8-1.1-2.3v-4.1c0.7,0.1,1.4-0.3,1.6-0.5l4.8-4.7h2v0.5
		c0,1,1,1.8,2.2,1.8h2.8c1.2,0,2.2-0.8,2.2-1.8v-11.1c0-1-1-1.8-2.2-1.8h-2.8c-1.2,0-2.2,0.8-2.2,1.8v2.3h-3.6L30.7,113.5z
		 M31.5,119.9l-5.1,5c0,0-0.5,0.5-1.1,0.1l-0.9-0.6v6.8l0.4,0.1c0.4,0.1,0.7,0.8,0.7,1.4v10.6c0,0.4-0.2,0.7-0.3,0.7h-3.5
		c-0.1,0-0.3-0.3-0.3-0.7v-10.6c0-0.7,0.3-1.3,0.7-1.4l0.4-0.1V122l0.8-0.8h-1.3l-0.6,0v0.1c-0.3,0-0.7,0-1-0.3
		c-0.1-0.1-0.4-0.5,0.2-1.1l2.9-2.9l-3.6,2.1c0,0-0.8,0.5-1.4-0.2c-0.1-0.1-0.5-0.7,0.4-1.5l1.8-1.4h2.9l1.6,1.6c0.7,0.8,3,2,5,0.5
		c0.2-0.1,2.6-1.7,1.8-4.2h3v-3.5c0-0.4,0.5-0.7,1.1-0.7h2.8c0.6,0,1.1,0.3,1.1,0.7v11.1c0,0.4-0.5,0.7-1.1,0.7h-2.8
		c-0.6,0-1.1-0.3-1.1-0.7v-1.6H31.5z"/>
	<path class="st1" d="M12.6,146.1c-1.2,0-2.2,1-2.2,2.2v1.4h26.1v-1.4c0-1.2-1-2.2-2.2-2.2H12.6z M12.6,147.2h21.8
		c0.6,0,1.1,0.5,1.1,1.1v0.3H11.5v-0.3C11.5,147.6,12,147.2,12.6,147.2z"/>
	<path class="st1" d="M40.8,151.1H6.1c-1.3,0-2.3,1.3-2.3,2.9v0.7h0.1h38.7l0.6,0v-0.7C43.1,152.5,42.1,151.1,40.8,151.1z
		 M6.1,152.5h34.7c0.5,0,0.9,0.4,1,0.9H5C5.2,152.8,5.6,152.5,6.1,152.5z"/>
</g>
<g>
	<path class="st1" d="M65.5,109.3c0-1.1-1-1.9-2.3-1.9h-3c-1.3,0-2.3,0.9-2.3,1.9v11.8c0,1.1,1,1.9,2.3,1.9h3c1.3,0,2.3-0.9,2.3-1.9
		v-0.9h1.8l1.9,1.9h3.1l-0.9-1c-0.2-0.2-0.3-0.4-0.4-0.6l-0.1-0.3l-0.2-0.1c-1-0.5-1.3-1.4-1.4-2.1c-0.2-1,0.6-1.9,0.7-2l2.8-2.5h5
		l2.2,2.1c0.4,0.4,0.9,0.7,1.5,0.7c0.8,0,1.2-0.4,1.3-0.5c0.5-0.4,0.8-1,0.8-1.5c0-0.9-0.6-1.5-0.8-1.6l-3-3
		c-0.7-0.7-2.3-0.7-2.5-0.7h-4.1c-1.5,0-2.6,0.9-3,1.3h-4.7V109.3z M70.5,111.5l0.3,0l0.2-0.2c0,0,1-1.1,2.3-1.1h4.1
		c0.4,0,1.4,0.1,1.6,0.4l3,3l0,0c0,0,0.4,0.3,0.4,0.7c0,0.2-0.1,0.4-0.4,0.6l0,0c0,0-0.1,0.2-0.5,0.2c-0.2,0-0.4-0.1-0.7-0.3
		l-2.5-2.4h-5.9l-3.2,2.8l0,0c-0.1,0.1-1.3,1.4-1,3c0.2,1,0.9,1.9,2.1,2.6c0,0,0,0.1,0,0.1h-0.5l-1.9-1.9h-3.4v2.1
		c0,0.4-0.5,0.8-1.2,0.8h-3c-0.6,0-1.2-0.3-1.2-0.8v-11.8c0-0.4,0.5-0.8,1.2-0.8h3c0.6,0,1.2,0.3,1.2,0.8v2.2H70.5z"/>
	<path class="st1" d="M84.2,113.5c1.1,2.3-1,3.6-1.1,3.6l0,0c-1.6,1.2-3.4-0.2-3.5-0.3l-2-2h-3.8l-2.1,1.7c-1.4,1.3-1,2.5-0.6,3.1
		c0.5,0.6,1.1,0.7,1.5,0.8c0,0.1,0,0.2,0,0.3c0,0.7,0.5,1.2,0.5,1.2c0.5,0.5,1.2,0.6,1.8,0.6v7.9c-0.6,0.4-1.1,1.3-1.1,2.3v10.6
		c0,1,0.6,1.8,1.5,1.8h3.5c0.8,0,1.5-0.8,1.5-1.8v-10.6c0-1-0.4-1.8-1.1-2.3v-4.1c0.7,0.1,1.4-0.3,1.6-0.5l4.8-4.7h2v0.5
		c0,1,1,1.8,2.2,1.8h2.8c1.2,0,2.2-0.8,2.2-1.8v-11.1c0-1-1-1.8-2.2-1.8h-2.8c-1.2,0-2.2,0.8-2.2,1.8v2.3h-3.6L84.2,113.5z
		 M85,119.9l-5.1,5c0,0-0.5,0.5-1.1,0.1l-0.9-0.6v6.8l0.4,0.1c0.4,0.1,0.7,0.8,0.7,1.4v10.6c0,0.4-0.2,0.7-0.3,0.7h-3.5
		c-0.1,0-0.3-0.3-0.3-0.7v-10.6c0-0.7,0.3-1.3,0.7-1.4l0.4-0.1V122l0.8-0.8h-1.3l-0.6,0v0.1c-0.3,0-0.7,0-1-0.3
		c-0.1-0.1-0.4-0.5,0.2-1.1L77,117l-3.6,2.1c0,0-0.8,0.5-1.4-0.2c-0.1-0.1-0.5-0.7,0.4-1.5l1.8-1.4h2.9l1.6,1.6c0.7,0.8,3,2,5,0.5
		c0.2-0.1,2.6-1.7,1.8-4.2h3v-3.5c0-0.4,0.5-0.7,1.1-0.7h2.8c0.6,0,1.1,0.3,1.1,0.7v11.1c0,0.4-0.5,0.7-1.1,0.7h-2.8
		c-0.6,0-1.1-0.3-1.1-0.7v-1.6H85z"/>
	<path class="st1" d="M66.1,146.1c-1.2,0-2.2,1-2.2,2.2v1.4h26.1v-1.4c0-1.2-1-2.2-2.2-2.2H66.1z M66.1,147.2h21.8
		c0.6,0,1.1,0.5,1.1,1.1v0.3H65.1v-0.3C65.1,147.6,65.5,147.2,66.1,147.2z"/>
	<path class="st1" d="M94.4,151.1H59.6c-1.3,0-2.3,1.3-2.3,2.9v0.7h0.1h38.7l0.6,0v-0.7C96.7,152.5,95.7,151.1,94.4,151.1z
		 M59.6,152.5h34.7c0.5,0,0.9,0.4,1,0.9H58.6C58.8,152.8,59.2,152.5,59.6,152.5z"/>
</g>
<g>
	<path class="st1" d="M119.1,109.3c0-1.1-1-1.9-2.3-1.9h-3c-1.3,0-2.3,0.9-2.3,1.9v11.8c0,1.1,1,1.9,2.3,1.9h3
		c1.3,0,2.3-0.9,2.3-1.9v-0.9h1.8l1.9,1.9h3.1l-0.9-1c-0.2-0.2-0.3-0.4-0.4-0.6l-0.1-0.3l-0.2-0.1c-1-0.5-1.3-1.4-1.4-2.1
		c-0.2-1,0.6-1.9,0.7-2l2.8-2.5h5l2.2,2.1c0.4,0.4,0.9,0.7,1.5,0.7c0.8,0,1.2-0.4,1.3-0.5c0.5-0.4,0.8-1,0.8-1.5
		c0-0.9-0.6-1.5-0.8-1.6l-3-3c-0.7-0.7-2.3-0.7-2.5-0.7h-4.1c-1.5,0-2.6,0.9-3,1.3h-4.7V109.3z M124,111.5l0.3,0l0.2-0.2
		c0,0,1-1.1,2.3-1.1h4.1c0.4,0,1.4,0.1,1.6,0.4l3,3l0,0c0,0,0.4,0.3,0.4,0.7c0,0.2-0.1,0.4-0.4,0.6l0,0c0,0-0.1,0.2-0.5,0.2
		c-0.2,0-0.4-0.1-0.7-0.3l-2.5-2.4h-5.9l-3.2,2.8l0,0c-0.1,0.1-1.3,1.4-1,3c0.2,1,0.9,1.9,2.1,2.6c0,0,0,0.1,0,0.1h-0.5l-1.9-1.9
		h-3.4v2.1c0,0.4-0.5,0.8-1.2,0.8h-3c-0.6,0-1.2-0.3-1.2-0.8v-11.8c0-0.4,0.5-0.8,1.2-0.8h3c0.6,0,1.2,0.3,1.2,0.8v2.2H124z"/>
	<path class="st1" d="M137.7,113.5c1.1,2.3-1,3.6-1.1,3.6l0,0c-1.6,1.2-3.4-0.2-3.5-0.3l-2-2h-3.8l-2.1,1.7c-1.4,1.3-1,2.5-0.6,3.1
		c0.5,0.6,1.1,0.7,1.5,0.8c0,0.1,0,0.2,0,0.3c0,0.7,0.5,1.2,0.5,1.2c0.5,0.5,1.2,0.6,1.8,0.6v7.9c-0.6,0.4-1.1,1.3-1.1,2.3v10.6
		c0,1,0.6,1.8,1.5,1.8h3.5c0.8,0,1.5-0.8,1.5-1.8v-10.6c0-1-0.4-1.8-1.1-2.3v-4.1c0.7,0.1,1.4-0.3,1.6-0.5l4.8-4.7h2v0.5
		c0,1,1,1.8,2.2,1.8h2.8c1.2,0,2.2-0.8,2.2-1.8v-11.1c0-1-1-1.8-2.2-1.8h-2.8c-1.2,0-2.2,0.8-2.2,1.8v2.3h-3.6L137.7,113.5z
		 M138.6,119.9l-5.1,5c0,0-0.5,0.5-1.1,0.1l-0.9-0.6v6.8l0.4,0.1c0.4,0.1,0.7,0.8,0.7,1.4v10.6c0,0.4-0.2,0.7-0.3,0.7h-3.5
		c-0.1,0-0.3-0.3-0.3-0.7v-10.6c0-0.7,0.3-1.3,0.7-1.4l0.4-0.1V122l0.8-0.8h-1.3l-0.6,0v0.1c-0.3,0-0.7,0-1-0.3
		c-0.1-0.1-0.4-0.5,0.2-1.1l2.9-2.9l-3.6,2.1c0,0-0.8,0.5-1.4-0.2c-0.1-0.1-0.5-0.7,0.4-1.5l1.8-1.4h2.9l1.6,1.6c0.7,0.8,3,2,5,0.5
		c0.2-0.1,2.6-1.7,1.8-4.2h3v-3.5c0-0.4,0.5-0.7,1.1-0.7h2.8c0.6,0,1.1,0.3,1.1,0.7v11.1c0,0.4-0.5,0.7-1.1,0.7h-2.8
		c-0.6,0-1.1-0.3-1.1-0.7v-1.6H138.6z"/>
	<path class="st1" d="M119.7,146.1c-1.2,0-2.2,1-2.2,2.2v1.4h26.1v-1.4c0-1.2-1-2.2-2.2-2.2H119.7z M119.7,147.2h21.8
		c0.6,0,1.1,0.5,1.1,1.1v0.3h-23.9v-0.3C118.6,147.6,119.1,147.2,119.7,147.2z"/>
	<path class="st1" d="M147.9,151.1h-34.7c-1.3,0-2.3,1.3-2.3,2.9v0.7h0.1h38.7l0.6,0v-0.7C150.2,152.5,149.2,151.1,147.9,151.1z
		 M113.2,152.5h34.7c0.5,0,0.9,0.4,1,0.9h-36.8C112.3,152.8,112.7,152.5,113.2,152.5z"/>
</g>
<g>
	<path class="st1" d="M172.6,109.3c0-1.1-1-1.9-2.3-1.9h-3c-1.3,0-2.3,0.9-2.3,1.9v11.8c0,1.1,1,1.9,2.3,1.9h3
		c1.3,0,2.3-0.9,2.3-1.9v-0.9h1.8l1.9,1.9h3.1l-0.9-1c-0.2-0.2-0.3-0.4-0.4-0.6l-0.1-0.3l-0.2-0.1c-1-0.5-1.3-1.4-1.4-2.1
		c-0.2-1,0.6-1.9,0.7-2l2.8-2.5h5l2.2,2.1c0.4,0.4,0.9,0.7,1.5,0.7c0.8,0,1.2-0.4,1.3-0.5c0.5-0.4,0.8-1,0.8-1.5
		c0-0.9-0.6-1.5-0.8-1.6l-3-3c-0.7-0.7-2.3-0.7-2.5-0.7h-4.1c-1.5,0-2.6,0.9-3,1.3h-4.7V109.3z M177.5,111.5l0.3,0l0.2-0.2
		c0,0,1-1.1,2.3-1.1h4.1c0.4,0,1.4,0.1,1.6,0.4l3,3l0,0c0,0,0.4,0.3,0.4,0.7c0,0.2-0.1,0.4-0.4,0.6l0,0c0,0-0.1,0.2-0.5,0.2
		c-0.2,0-0.4-0.1-0.7-0.3l-2.5-2.4h-5.9l-3.2,2.8l0,0c-0.1,0.1-1.3,1.4-1,3c0.2,1,0.9,1.9,2.1,2.6c0,0,0,0.1,0,0.1h-0.5l-1.9-1.9
		h-3.4v2.1c0,0.4-0.5,0.8-1.2,0.8h-3c-0.6,0-1.2-0.3-1.2-0.8v-11.8c0-0.4,0.5-0.8,1.2-0.8h3c0.6,0,1.2,0.3,1.2,0.8v2.2H177.5z"/>
	<path class="st1" d="M191.3,113.5c1.1,2.3-1,3.6-1.1,3.6l0,0c-1.6,1.2-3.4-0.2-3.5-0.3l-2-2h-3.8l-2.1,1.7c-1.4,1.3-1,2.5-0.6,3.1
		c0.5,0.6,1.1,0.7,1.5,0.8c0,0.1,0,0.2,0,0.3c0,0.7,0.5,1.2,0.5,1.2c0.5,0.5,1.2,0.6,1.8,0.6v7.9c-0.6,0.4-1.1,1.3-1.1,2.3v10.6
		c0,1,0.6,1.8,1.5,1.8h3.5c0.8,0,1.5-0.8,1.5-1.8v-10.6c0-1-0.4-1.8-1.1-2.3v-4.1c0.7,0.1,1.4-0.3,1.6-0.5l4.8-4.7h2v0.5
		c0,1,1,1.8,2.2,1.8h2.8c1.2,0,2.2-0.8,2.2-1.8v-11.1c0-1-1-1.8-2.2-1.8h-2.8c-1.2,0-2.2,0.8-2.2,1.8v2.3h-3.6L191.3,113.5z
		 M192.1,119.9l-5.1,5c0,0-0.5,0.5-1.1,0.1l-0.9-0.6v6.8l0.4,0.1c0.4,0.1,0.7,0.8,0.7,1.4v10.6c0,0.4-0.2,0.7-0.3,0.7h-3.5
		c-0.1,0-0.3-0.3-0.3-0.7v-10.6c0-0.7,0.3-1.3,0.7-1.4l0.4-0.1V122l0.8-0.8h-1.3l-0.6,0v0.1c-0.3,0-0.7,0-1-0.3
		c-0.1-0.1-0.4-0.5,0.2-1.1l2.9-2.9l-3.6,2.1c0,0-0.8,0.5-1.4-0.2c-0.1-0.1-0.5-0.7,0.4-1.5l1.8-1.4h2.9l1.6,1.6c0.7,0.8,3,2,5,0.5
		c0.2-0.1,2.6-1.7,1.8-4.2h3v-3.5c0-0.4,0.5-0.7,1.1-0.7h2.8c0.6,0,1.1,0.3,1.1,0.7v11.1c0,0.4-0.5,0.7-1.1,0.7h-2.8
		c-0.6,0-1.1-0.3-1.1-0.7v-1.6H192.1z"/>
	<path class="st1" d="M173.2,146.1c-1.2,0-2.2,1-2.2,2.2v1.4h26.1v-1.4c0-1.2-1-2.2-2.2-2.2H173.2z M173.2,147.2H195
		c0.6,0,1.1,0.5,1.1,1.1v0.3h-23.9v-0.3C172.2,147.6,172.6,147.2,173.2,147.2z"/>
	<path class="st1" d="M201.5,151.1h-34.7c-1.3,0-2.3,1.3-2.3,2.9v0.7h0.1h38.7l0.6,0v-0.7C203.8,152.5,202.7,151.1,201.5,151.1z
		 M166.7,152.5h34.7c0.5,0,0.9,0.4,1,0.9h-36.8C165.9,152.8,166.3,152.5,166.7,152.5z"/>
</g>
<g>
	<path class="st1" d="M226.2,109.3c0-1.1-1-1.9-2.3-1.9h-3c-1.3,0-2.3,0.9-2.3,1.9v11.8c0,1.1,1,1.9,2.3,1.9h3
		c1.3,0,2.3-0.9,2.3-1.9v-0.9h1.8l1.9,1.9h3.1l-0.9-1c-0.2-0.2-0.3-0.4-0.4-0.6l-0.1-0.3l-0.2-0.1c-1-0.5-1.3-1.4-1.4-2.1
		c-0.2-1,0.6-1.9,0.7-2l2.8-2.5h5l2.2,2.1c0.4,0.4,0.9,0.7,1.5,0.7c0.8,0,1.2-0.4,1.3-0.5c0.5-0.4,0.8-1,0.8-1.5
		c0-0.9-0.6-1.5-0.8-1.6l-3-3c-0.7-0.7-2.3-0.7-2.5-0.7h-4.1c-1.5,0-2.6,0.9-3,1.3h-4.7V109.3z M231.1,111.5l0.3,0l0.2-0.2
		c0,0,1-1.1,2.3-1.1h4.1c0.4,0,1.4,0.1,1.6,0.4l3,3l0,0c0,0,0.4,0.3,0.4,0.7c0,0.2-0.1,0.4-0.4,0.6l0,0c0,0-0.1,0.2-0.5,0.2
		c-0.2,0-0.4-0.1-0.7-0.3l-2.5-2.4h-5.9l-3.2,2.8l0,0c-0.1,0.1-1.3,1.4-1,3c0.2,1,0.9,1.9,2.1,2.6c0,0,0,0.1,0,0.1h-0.5l-1.9-1.9
		H225v2.1c0,0.4-0.5,0.8-1.2,0.8h-3c-0.6,0-1.2-0.3-1.2-0.8v-11.8c0-0.4,0.5-0.8,1.2-0.8h3c0.6,0,1.2,0.3,1.2,0.8v2.2H231.1z"/>
	<path class="st1" d="M244.8,113.5c1.1,2.3-1,3.6-1.1,3.6l0,0c-1.6,1.2-3.4-0.2-3.5-0.3l-2-2h-3.8l-2.1,1.7c-1.4,1.3-1,2.5-0.6,3.1
		c0.5,0.6,1.1,0.7,1.5,0.8c0,0.1,0,0.2,0,0.3c0,0.7,0.5,1.2,0.5,1.2c0.5,0.5,1.2,0.6,1.8,0.6v7.9c-0.6,0.4-1.1,1.3-1.1,2.3v10.6
		c0,1,0.6,1.8,1.5,1.8h3.5c0.8,0,1.5-0.8,1.5-1.8v-10.6c0-1-0.4-1.8-1.1-2.3v-4.1c0.7,0.1,1.4-0.3,1.6-0.5l4.8-4.7h2v0.5
		c0,1,1,1.8,2.2,1.8h2.8c1.2,0,2.2-0.8,2.2-1.8v-11.1c0-1-1-1.8-2.2-1.8h-2.8c-1.2,0-2.2,0.8-2.2,1.8v2.3h-3.6L244.8,113.5z
		 M245.6,119.9l-5.1,5c0,0-0.5,0.5-1.1,0.1l-0.9-0.6v6.8l0.4,0.1c0.4,0.1,0.7,0.8,0.7,1.4v10.6c0,0.4-0.2,0.7-0.3,0.7h-3.5
		c-0.1,0-0.3-0.3-0.3-0.7v-10.6c0-0.7,0.3-1.3,0.7-1.4l0.4-0.1V122l0.8-0.8H236l-0.6,0v0.1c-0.3,0-0.7,0-1-0.3
		c-0.1-0.1-0.4-0.5,0.2-1.1l2.9-2.9L234,119c0,0-0.8,0.5-1.4-0.2c-0.1-0.1-0.5-0.7,0.4-1.5l1.8-1.4h2.9l1.6,1.6c0.7,0.8,3,2,5,0.5
		c0.2-0.1,2.6-1.7,1.8-4.2h3v-3.5c0-0.4,0.5-0.7,1.1-0.7h2.8c0.6,0,1.1,0.3,1.1,0.7v11.1c0,0.4-0.5,0.7-1.1,0.7h-2.8
		c-0.6,0-1.1-0.3-1.1-0.7v-1.6H245.6z"/>
	<path class="st1" d="M226.8,146.1c-1.2,0-2.2,1-2.2,2.2v1.4h26.1v-1.4c0-1.2-1-2.2-2.2-2.2H226.8z M226.8,147.2h21.8
		c0.6,0,1.1,0.5,1.1,1.1v0.3h-23.9v-0.3C225.7,147.6,226.2,147.2,226.8,147.2z"/>
	<path class="st1" d="M255,151.1h-34.7c-1.3,0-2.3,1.3-2.3,2.9v0.7h0.1h38.7l0.6,0v-0.7C257.3,152.5,256.3,151.1,255,151.1z
		 M220.3,152.5H255c0.5,0,0.9,0.4,1,0.9h-36.8C219.4,152.8,219.8,152.5,220.3,152.5z"/>
</g>
<g>
	<path class="st1" d="M12,57.5c0-1.1-1-1.9-2.3-1.9h-3c-1.3,0-2.3,0.9-2.3,1.9v11.8c0,1.1,1,1.9,2.3,1.9h3c1.3,0,2.3-0.9,2.3-1.9
		v-0.9h1.8l1.9,1.9h3.1l-0.9-1c-0.2-0.2-0.3-0.4-0.4-0.6l-0.1-0.3l-0.2-0.1c-1-0.5-1.3-1.4-1.4-2.1c-0.2-1,0.6-1.9,0.7-2l2.8-2.5h5
		l2.2,2.1c0.4,0.4,0.9,0.7,1.5,0.7c0.8,0,1.2-0.4,1.3-0.5c0.5-0.4,0.8-1,0.8-1.5c0-0.9-0.6-1.5-0.8-1.6l-3-3
		c-0.7-0.7-2.3-0.7-2.5-0.7h-4.1c-1.5,0-2.6,0.9-3,1.3H12V57.5z M16.9,59.7l0.3,0l0.2-0.2c0,0,1-1.1,2.3-1.1h4.1
		c0.4,0,1.4,0.1,1.6,0.4l3,3l0,0c0,0,0.4,0.3,0.4,0.7c0,0.2-0.1,0.4-0.4,0.6l0,0c0,0-0.1,0.2-0.5,0.2c-0.2,0-0.4-0.1-0.7-0.3
		l-2.5-2.4h-5.9l-3.2,2.8l0,0c-0.1,0.1-1.3,1.4-1,3c0.2,1,0.9,1.9,2.1,2.6c0,0,0,0.1,0,0.1h-0.5l-1.9-1.9h-3.4v2.1
		c0,0.4-0.5,0.8-1.2,0.8h-3c-0.6,0-1.2-0.3-1.2-0.8V57.5c0-0.4,0.5-0.8,1.2-0.8h3c0.6,0,1.2,0.3,1.2,0.8v2.2H16.9z"/>
	<path class="st1" d="M30.7,61.6c1.1,2.3-1,3.6-1.1,3.6l0,0c-1.6,1.2-3.4-0.2-3.5-0.3l-2-2h-3.8l-2.1,1.7c-1.4,1.3-1,2.5-0.6,3.1
		c0.5,0.6,1.1,0.7,1.5,0.8c0,0.1,0,0.2,0,0.3c0,0.7,0.5,1.2,0.5,1.2c0.5,0.5,1.2,0.6,1.8,0.6v7.9c-0.6,0.4-1.1,1.3-1.1,2.3v10.6
		c0,1,0.6,1.8,1.5,1.8h3.5c0.8,0,1.5-0.8,1.5-1.8V80.8c0-1-0.4-1.8-1.1-2.3v-4.1c0.7,0.1,1.4-0.3,1.6-0.5l4.8-4.7h2v0.5
		c0,1,1,1.8,2.2,1.8h2.8c1.2,0,2.2-0.8,2.2-1.8V58.5c0-1-1-1.8-2.2-1.8h-2.8c-1.2,0-2.2,0.8-2.2,1.8v2.3h-3.6L30.7,61.6z M31.5,68
		l-5.1,5c0,0-0.5,0.5-1.1,0.1l-0.9-0.6v6.8l0.4,0.1c0.4,0.1,0.7,0.8,0.7,1.4v10.6c0,0.4-0.2,0.7-0.3,0.7h-3.5
		c-0.1,0-0.3-0.3-0.3-0.7V80.8c0-0.7,0.3-1.3,0.7-1.4l0.4-0.1v-9.1l0.8-0.8h-1.3l-0.6,0v0.1c-0.3,0-0.7,0-1-0.3
		c-0.1-0.1-0.4-0.5,0.2-1.1l2.9-2.9l-3.6,2.1c0,0-0.8,0.5-1.4-0.2c-0.1-0.1-0.5-0.7,0.4-1.5l1.8-1.4h2.9l1.6,1.6c0.7,0.8,3,2,5,0.5
		c0.2-0.1,2.6-1.7,1.8-4.2h3v-3.5c0-0.4,0.5-0.7,1.1-0.7h2.8c0.6,0,1.1,0.3,1.1,0.7v11.1c0,0.4-0.5,0.7-1.1,0.7h-2.8
		c-0.6,0-1.1-0.3-1.1-0.7V68H31.5z"/>
	<path class="st1" d="M12.6,94.3c-1.2,0-2.2,1-2.2,2.2v1.4h26.1v-1.4c0-1.2-1-2.2-2.2-2.2H12.6z M12.6,95.4h21.8
		c0.6,0,1.1,0.5,1.1,1.1v0.3H11.5v-0.3C11.5,95.8,12,95.4,12.6,95.4z"/>
	<path class="st1" d="M40.8,99.3H6.1c-1.3,0-2.3,1.3-2.3,2.9v0.7h0.1h38.7l0.6,0v-0.7C43.1,100.6,42.1,99.3,40.8,99.3z M6.1,100.7
		h34.7c0.5,0,0.9,0.4,1,0.9H5C5.2,101,5.6,100.7,6.1,100.7z"/>
</g>
<g>
	<path class="st1" d="M65.5,57.5c0-1.1-1-1.9-2.3-1.9h-3c-1.3,0-2.3,0.9-2.3,1.9v11.8c0,1.1,1,1.9,2.3,1.9h3c1.3,0,2.3-0.9,2.3-1.9
		v-0.9h1.8l1.9,1.9h3.1l-0.9-1c-0.2-0.2-0.3-0.4-0.4-0.6l-0.1-0.3l-0.2-0.1c-1-0.5-1.3-1.4-1.4-2.1c-0.2-1,0.6-1.9,0.7-2l2.8-2.5h5
		l2.2,2.1c0.4,0.4,0.9,0.7,1.5,0.7c0.8,0,1.2-0.4,1.3-0.5c0.5-0.4,0.8-1,0.8-1.5c0-0.9-0.6-1.5-0.8-1.6l-3-3
		c-0.7-0.7-2.3-0.7-2.5-0.7h-4.1c-1.5,0-2.6,0.9-3,1.3h-4.7V57.5z M70.5,59.7l0.3,0l0.2-0.2c0,0,1-1.1,2.3-1.1h4.1
		c0.4,0,1.4,0.1,1.6,0.4l3,3l0,0c0,0,0.4,0.3,0.4,0.7c0,0.2-0.1,0.4-0.4,0.6l0,0c0,0-0.1,0.2-0.5,0.2c-0.2,0-0.4-0.1-0.7-0.3
		l-2.5-2.4h-5.9l-3.2,2.8l0,0c-0.1,0.1-1.3,1.4-1,3c0.2,1,0.9,1.9,2.1,2.6c0,0,0,0.1,0,0.1h-0.5l-1.9-1.9h-3.4v2.1
		c0,0.4-0.5,0.8-1.2,0.8h-3c-0.6,0-1.2-0.3-1.2-0.8V57.5c0-0.4,0.5-0.8,1.2-0.8h3c0.6,0,1.2,0.3,1.2,0.8v2.2H70.5z"/>
	<path class="st1" d="M84.2,61.6c1.1,2.3-1,3.6-1.1,3.6l0,0c-1.6,1.2-3.4-0.2-3.5-0.3l-2-2h-3.8l-2.1,1.7c-1.4,1.3-1,2.5-0.6,3.1
		c0.5,0.6,1.1,0.7,1.5,0.8c0,0.1,0,0.2,0,0.3c0,0.7,0.5,1.2,0.5,1.2c0.5,0.5,1.2,0.6,1.8,0.6v7.9c-0.6,0.4-1.1,1.3-1.1,2.3v10.6
		c0,1,0.6,1.8,1.5,1.8h3.5c0.8,0,1.5-0.8,1.5-1.8V80.8c0-1-0.4-1.8-1.1-2.3v-4.1c0.7,0.1,1.4-0.3,1.6-0.5l4.8-4.7h2v0.5
		c0,1,1,1.8,2.2,1.8h2.8c1.2,0,2.2-0.8,2.2-1.8V58.5c0-1-1-1.8-2.2-1.8h-2.8c-1.2,0-2.2,0.8-2.2,1.8v2.3h-3.6L84.2,61.6z M85,68
		l-5.1,5c0,0-0.5,0.5-1.1,0.1l-0.9-0.6v6.8l0.4,0.1c0.4,0.1,0.7,0.8,0.7,1.4v10.6c0,0.4-0.2,0.7-0.3,0.7h-3.5
		c-0.1,0-0.3-0.3-0.3-0.7V80.8c0-0.7,0.3-1.3,0.7-1.4l0.4-0.1v-9.1l0.8-0.8h-1.3l-0.6,0v0.1c-0.3,0-0.7,0-1-0.3
		c-0.1-0.1-0.4-0.5,0.2-1.1l2.9-2.9l-3.6,2.1c0,0-0.8,0.5-1.4-0.2c-0.1-0.1-0.5-0.7,0.4-1.5l1.8-1.4h2.9l1.6,1.6c0.7,0.8,3,2,5,0.5
		c0.2-0.1,2.6-1.7,1.8-4.2h3v-3.5c0-0.4,0.5-0.7,1.1-0.7h2.8c0.6,0,1.1,0.3,1.1,0.7v11.1c0,0.4-0.5,0.7-1.1,0.7h-2.8
		c-0.6,0-1.1-0.3-1.1-0.7V68H85z"/>
	<path class="st1" d="M66.1,94.3c-1.2,0-2.2,1-2.2,2.2v1.4h26.1v-1.4c0-1.2-1-2.2-2.2-2.2H66.1z M66.1,95.4h21.8
		c0.6,0,1.1,0.5,1.1,1.1v0.3H65.1v-0.3C65.1,95.8,65.5,95.4,66.1,95.4z"/>
	<path class="st1" d="M94.4,99.3H59.6c-1.3,0-2.3,1.3-2.3,2.9v0.7h0.1h38.7l0.6,0v-0.7C96.7,100.6,95.7,99.3,94.4,99.3z M59.6,100.7
		h34.7c0.5,0,0.9,0.4,1,0.9H58.6C58.8,101,59.2,100.7,59.6,100.7z"/>
</g>
<g>
	<path class="st1" d="M119.1,57.5c0-1.1-1-1.9-2.3-1.9h-3c-1.3,0-2.3,0.9-2.3,1.9v11.8c0,1.1,1,1.9,2.3,1.9h3c1.3,0,2.3-0.9,2.3-1.9
		v-0.9h1.8l1.9,1.9h3.1l-0.9-1c-0.2-0.2-0.3-0.4-0.4-0.6l-0.1-0.3l-0.2-0.1c-1-0.5-1.3-1.4-1.4-2.1c-0.2-1,0.6-1.9,0.7-2l2.8-2.5h5
		l2.2,2.1c0.4,0.4,0.9,0.7,1.5,0.7c0.8,0,1.2-0.4,1.3-0.5c0.5-0.4,0.8-1,0.8-1.5c0-0.9-0.6-1.5-0.8-1.6l-3-3
		c-0.7-0.7-2.3-0.7-2.5-0.7h-4.1c-1.5,0-2.6,0.9-3,1.3h-4.7V57.5z M124,59.7l0.3,0l0.2-0.2c0,0,1-1.1,2.3-1.1h4.1
		c0.4,0,1.4,0.1,1.6,0.4l3,3l0,0c0,0,0.4,0.3,0.4,0.7c0,0.2-0.1,0.4-0.4,0.6l0,0c0,0-0.1,0.2-0.5,0.2c-0.2,0-0.4-0.1-0.7-0.3
		l-2.5-2.4h-5.9l-3.2,2.8l0,0c-0.1,0.1-1.3,1.4-1,3c0.2,1,0.9,1.9,2.1,2.6c0,0,0,0.1,0,0.1h-0.5l-1.9-1.9h-3.4v2.1
		c0,0.4-0.5,0.8-1.2,0.8h-3c-0.6,0-1.2-0.3-1.2-0.8V57.5c0-0.4,0.5-0.8,1.2-0.8h3c0.6,0,1.2,0.3,1.2,0.8v2.2H124z"/>
	<path class="st1" d="M137.7,61.6c1.1,2.3-1,3.6-1.1,3.6l0,0c-1.6,1.2-3.4-0.2-3.5-0.3l-2-2h-3.8l-2.1,1.7c-1.4,1.3-1,2.5-0.6,3.1
		c0.5,0.6,1.1,0.7,1.5,0.8c0,0.1,0,0.2,0,0.3c0,0.7,0.5,1.2,0.5,1.2c0.5,0.5,1.2,0.6,1.8,0.6v7.9c-0.6,0.4-1.1,1.3-1.1,2.3v10.6
		c0,1,0.6,1.8,1.5,1.8h3.5c0.8,0,1.5-0.8,1.5-1.8V80.8c0-1-0.4-1.8-1.1-2.3v-4.1c0.7,0.1,1.4-0.3,1.6-0.5l4.8-4.7h2v0.5
		c0,1,1,1.8,2.2,1.8h2.8c1.2,0,2.2-0.8,2.2-1.8V58.5c0-1-1-1.8-2.2-1.8h-2.8c-1.2,0-2.2,0.8-2.2,1.8v2.3h-3.6L137.7,61.6z M138.6,68
		l-5.1,5c0,0-0.5,0.5-1.1,0.1l-0.9-0.6v6.8l0.4,0.1c0.4,0.1,0.7,0.8,0.7,1.4v10.6c0,0.4-0.2,0.7-0.3,0.7h-3.5
		c-0.1,0-0.3-0.3-0.3-0.7V80.8c0-0.7,0.3-1.3,0.7-1.4l0.4-0.1v-9.1l0.8-0.8h-1.3l-0.6,0v0.1c-0.3,0-0.7,0-1-0.3
		c-0.1-0.1-0.4-0.5,0.2-1.1l2.9-2.9l-3.6,2.1c0,0-0.8,0.5-1.4-0.2c-0.1-0.1-0.5-0.7,0.4-1.5l1.8-1.4h2.9l1.6,1.6c0.7,0.8,3,2,5,0.5
		c0.2-0.1,2.6-1.7,1.8-4.2h3v-3.5c0-0.4,0.5-0.7,1.1-0.7h2.8c0.6,0,1.1,0.3,1.1,0.7v11.1c0,0.4-0.5,0.7-1.1,0.7h-2.8
		c-0.6,0-1.1-0.3-1.1-0.7V68H138.6z"/>
	<path class="st1" d="M119.7,94.3c-1.2,0-2.2,1-2.2,2.2v1.4h26.1v-1.4c0-1.2-1-2.2-2.2-2.2H119.7z M119.7,95.4h21.8
		c0.6,0,1.1,0.5,1.1,1.1v0.3h-23.9v-0.3C118.6,95.8,119.1,95.4,119.7,95.4z"/>
	<path class="st1" d="M147.9,99.3h-34.7c-1.3,0-2.3,1.3-2.3,2.9v0.7h0.1h38.7l0.6,0v-0.7C150.2,100.6,149.2,99.3,147.9,99.3z
		 M113.2,100.7h34.7c0.5,0,0.9,0.4,1,0.9h-36.8C112.3,101,112.7,100.7,113.2,100.7z"/>
</g>
<g>
	<path class="st1" d="M172.6,57.5c0-1.1-1-1.9-2.3-1.9h-3c-1.3,0-2.3,0.9-2.3,1.9v11.8c0,1.1,1,1.9,2.3,1.9h3c1.3,0,2.3-0.9,2.3-1.9
		v-0.9h1.8l1.9,1.9h3.1l-0.9-1c-0.2-0.2-0.3-0.4-0.4-0.6l-0.1-0.3l-0.2-0.1c-1-0.5-1.3-1.4-1.4-2.1c-0.2-1,0.6-1.9,0.7-2l2.8-2.5h5
		l2.2,2.1c0.4,0.4,0.9,0.7,1.5,0.7c0.8,0,1.2-0.4,1.3-0.5c0.5-0.4,0.8-1,0.8-1.5c0-0.9-0.6-1.5-0.8-1.6l-3-3
		c-0.7-0.7-2.3-0.7-2.5-0.7h-4.1c-1.5,0-2.6,0.9-3,1.3h-4.7V57.5z M177.5,59.7l0.3,0l0.2-0.2c0,0,1-1.1,2.3-1.1h4.1
		c0.4,0,1.4,0.1,1.6,0.4l3,3l0,0c0,0,0.4,0.3,0.4,0.7c0,0.2-0.1,0.4-0.4,0.6l0,0c0,0-0.1,0.2-0.5,0.2c-0.2,0-0.4-0.1-0.7-0.3
		l-2.5-2.4h-5.9l-3.2,2.8l0,0c-0.1,0.1-1.3,1.4-1,3c0.2,1,0.9,1.9,2.1,2.6c0,0,0,0.1,0,0.1h-0.5l-1.9-1.9h-3.4v2.1
		c0,0.4-0.5,0.8-1.2,0.8h-3c-0.6,0-1.2-0.3-1.2-0.8V57.5c0-0.4,0.5-0.8,1.2-0.8h3c0.6,0,1.2,0.3,1.2,0.8v2.2H177.5z"/>
	<path class="st1" d="M191.3,61.6c1.1,2.3-1,3.6-1.1,3.6l0,0c-1.6,1.2-3.4-0.2-3.5-0.3l-2-2h-3.8l-2.1,1.7c-1.4,1.3-1,2.5-0.6,3.1
		c0.5,0.6,1.1,0.7,1.5,0.8c0,0.1,0,0.2,0,0.3c0,0.7,0.5,1.2,0.5,1.2c0.5,0.5,1.2,0.6,1.8,0.6v7.9c-0.6,0.4-1.1,1.3-1.1,2.3v10.6
		c0,1,0.6,1.8,1.5,1.8h3.5c0.8,0,1.5-0.8,1.5-1.8V80.8c0-1-0.4-1.8-1.1-2.3v-4.1c0.7,0.1,1.4-0.3,1.6-0.5l4.8-4.7h2v0.5
		c0,1,1,1.8,2.2,1.8h2.8c1.2,0,2.2-0.8,2.2-1.8V58.5c0-1-1-1.8-2.2-1.8h-2.8c-1.2,0-2.2,0.8-2.2,1.8v2.3h-3.6L191.3,61.6z M192.1,68
		l-5.1,5c0,0-0.5,0.5-1.1,0.1l-0.9-0.6v6.8l0.4,0.1c0.4,0.1,0.7,0.8,0.7,1.4v10.6c0,0.4-0.2,0.7-0.3,0.7h-3.5
		c-0.1,0-0.3-0.3-0.3-0.7V80.8c0-0.7,0.3-1.3,0.7-1.4l0.4-0.1v-9.1l0.8-0.8h-1.3l-0.6,0v0.1c-0.3,0-0.7,0-1-0.3
		c-0.1-0.1-0.4-0.5,0.2-1.1l2.9-2.9l-3.6,2.1c0,0-0.8,0.5-1.4-0.2c-0.1-0.1-0.5-0.7,0.4-1.5l1.8-1.4h2.9l1.6,1.6c0.7,0.8,3,2,5,0.5
		c0.2-0.1,2.6-1.7,1.8-4.2h3v-3.5c0-0.4,0.5-0.7,1.1-0.7h2.8c0.6,0,1.1,0.3,1.1,0.7v11.1c0,0.4-0.5,0.7-1.1,0.7h-2.8
		c-0.6,0-1.1-0.3-1.1-0.7V68H192.1z"/>
	<path class="st1" d="M173.2,94.3c-1.2,0-2.2,1-2.2,2.2v1.4h26.1v-1.4c0-1.2-1-2.2-2.2-2.2H173.2z M173.2,95.4H195
		c0.6,0,1.1,0.5,1.1,1.1v0.3h-23.9v-0.3C172.2,95.8,172.6,95.4,173.2,95.4z"/>
	<path class="st1" d="M201.5,99.3h-34.7c-1.3,0-2.3,1.3-2.3,2.9v0.7h0.1h38.7l0.6,0v-0.7C203.8,100.6,202.7,99.3,201.5,99.3z
		 M166.7,100.7h34.7c0.5,0,0.9,0.4,1,0.9h-36.8C165.9,101,166.3,100.7,166.7,100.7z"/>
</g>
<g>
	<path class="st1" d="M226.2,57.5c0-1.1-1-1.9-2.3-1.9h-3c-1.3,0-2.3,0.9-2.3,1.9v11.8c0,1.1,1,1.9,2.3,1.9h3c1.3,0,2.3-0.9,2.3-1.9
		v-0.9h1.8l1.9,1.9h3.1l-0.9-1c-0.2-0.2-0.3-0.4-0.4-0.6l-0.1-0.3l-0.2-0.1c-1-0.5-1.3-1.4-1.4-2.1c-0.2-1,0.6-1.9,0.7-2l2.8-2.5h5
		l2.2,2.1c0.4,0.4,0.9,0.7,1.5,0.7c0.8,0,1.2-0.4,1.3-0.5c0.5-0.4,0.8-1,0.8-1.5c0-0.9-0.6-1.5-0.8-1.6l-3-3
		c-0.7-0.7-2.3-0.7-2.5-0.7h-4.1c-1.5,0-2.6,0.9-3,1.3h-4.7V57.5z M231.1,59.7l0.3,0l0.2-0.2c0,0,1-1.1,2.3-1.1h4.1
		c0.4,0,1.4,0.1,1.6,0.4l3,3l0,0c0,0,0.4,0.3,0.4,0.7c0,0.2-0.1,0.4-0.4,0.6l0,0c0,0-0.1,0.2-0.5,0.2c-0.2,0-0.4-0.1-0.7-0.3
		l-2.5-2.4h-5.9l-3.2,2.8l0,0c-0.1,0.1-1.3,1.4-1,3c0.2,1,0.9,1.9,2.1,2.6c0,0,0,0.1,0,0.1h-0.5l-1.9-1.9H225v2.1
		c0,0.4-0.5,0.8-1.2,0.8h-3c-0.6,0-1.2-0.3-1.2-0.8V57.5c0-0.4,0.5-0.8,1.2-0.8h3c0.6,0,1.2,0.3,1.2,0.8v2.2H231.1z"/>
	<path class="st1" d="M244.8,61.6c1.1,2.3-1,3.6-1.1,3.6l0,0c-1.6,1.2-3.4-0.2-3.5-0.3l-2-2h-3.8l-2.1,1.7c-1.4,1.3-1,2.5-0.6,3.1
		c0.5,0.6,1.1,0.7,1.5,0.8c0,0.1,0,0.2,0,0.3c0,0.7,0.5,1.2,0.5,1.2c0.5,0.5,1.2,0.6,1.8,0.6v7.9c-0.6,0.4-1.1,1.3-1.1,2.3v10.6
		c0,1,0.6,1.8,1.5,1.8h3.5c0.8,0,1.5-0.8,1.5-1.8V80.8c0-1-0.4-1.8-1.1-2.3v-4.1c0.7,0.1,1.4-0.3,1.6-0.5l4.8-4.7h2v0.5
		c0,1,1,1.8,2.2,1.8h2.8c1.2,0,2.2-0.8,2.2-1.8V58.5c0-1-1-1.8-2.2-1.8h-2.8c-1.2,0-2.2,0.8-2.2,1.8v2.3h-3.6L244.8,61.6z M245.6,68
		l-5.1,5c0,0-0.5,0.5-1.1,0.1l-0.9-0.6v6.8l0.4,0.1c0.4,0.1,0.7,0.8,0.7,1.4v10.6c0,0.4-0.2,0.7-0.3,0.7h-3.5
		c-0.1,0-0.3-0.3-0.3-0.7V80.8c0-0.7,0.3-1.3,0.7-1.4l0.4-0.1v-9.1l0.8-0.8H236l-0.6,0v0.1c-0.3,0-0.7,0-1-0.3
		c-0.1-0.1-0.4-0.5,0.2-1.1l2.9-2.9l-3.6,2.1c0,0-0.8,0.5-1.4-0.2c-0.1-0.1-0.5-0.7,0.4-1.5l1.8-1.4h2.9l1.6,1.6c0.7,0.8,3,2,5,0.5
		c0.2-0.1,2.6-1.7,1.8-4.2h3v-3.5c0-0.4,0.5-0.7,1.1-0.7h2.8c0.6,0,1.1,0.3,1.1,0.7v11.1c0,0.4-0.5,0.7-1.1,0.7h-2.8
		c-0.6,0-1.1-0.3-1.1-0.7V68H245.6z"/>
	<path class="st1" d="M226.8,94.3c-1.2,0-2.2,1-2.2,2.2v1.4h26.1v-1.4c0-1.2-1-2.2-2.2-2.2H226.8z M226.8,95.4h21.8
		c0.6,0,1.1,0.5,1.1,1.1v0.3h-23.9v-0.3C225.7,95.8,226.2,95.4,226.8,95.4z"/>
	<path class="st1" d="M255,99.3h-34.7c-1.3,0-2.3,1.3-2.3,2.9v0.7h0.1h38.7l0.6,0v-0.7C257.3,100.6,256.3,99.3,255,99.3z
		 M220.3,100.7H255c0.5,0,0.9,0.4,1,0.9h-36.8C219.4,101,219.8,100.7,220.3,100.7z"/>
</g>
<g>
	<path class="st1" d="M12,5.7c0-1.1-1-1.9-2.3-1.9h-3c-1.3,0-2.3,0.9-2.3,1.9v11.8c0,1.1,1,1.9,2.3,1.9h3c1.3,0,2.3-0.9,2.3-1.9
		v-0.9h1.8l1.9,1.9h3.1l-0.9-1c-0.2-0.2-0.3-0.4-0.4-0.6l-0.1-0.3l-0.2-0.1c-1-0.5-1.3-1.4-1.4-2.1c-0.2-1,0.6-1.9,0.7-2l2.8-2.5h5
		l2.2,2.1c0.4,0.4,0.9,0.7,1.5,0.7c0.8,0,1.2-0.4,1.3-0.5c0.5-0.4,0.8-1,0.8-1.5c0-0.9-0.6-1.5-0.8-1.6l-3-3
		c-0.7-0.7-2.3-0.7-2.5-0.7h-4.1c-1.5,0-2.6,0.9-3,1.3H12V5.7z M16.9,7.9l0.3,0l0.2-0.2c0,0,1-1.1,2.3-1.1h4.1
		c0.4,0,1.4,0.1,1.6,0.4l3,3l0,0c0,0,0.4,0.3,0.4,0.7c0,0.2-0.1,0.4-0.4,0.6l0,0c0,0-0.1,0.2-0.5,0.2c-0.2,0-0.4-0.1-0.7-0.3
		l-2.5-2.4h-5.9l-3.2,2.8l0,0c-0.1,0.1-1.3,1.4-1,3c0.2,1,0.9,1.9,2.1,2.6c0,0,0,0.1,0,0.1h-0.5l-1.9-1.9h-3.4v2.1
		c0,0.4-0.5,0.8-1.2,0.8h-3c-0.6,0-1.2-0.3-1.2-0.8V5.7c0-0.4,0.5-0.8,1.2-0.8h3c0.6,0,1.2,0.3,1.2,0.8v2.2H16.9z"/>
	<path class="st1" d="M30.7,9.8c1.1,2.3-1,3.6-1.1,3.6l0,0c-1.6,1.2-3.4-0.2-3.5-0.3l-2-2h-3.8l-2.1,1.7c-1.4,1.3-1,2.5-0.6,3.1
		c0.5,0.6,1.1,0.7,1.5,0.8c0,0.1,0,0.2,0,0.3c0,0.7,0.5,1.2,0.5,1.2c0.5,0.5,1.2,0.6,1.8,0.6v7.9c-0.6,0.4-1.1,1.3-1.1,2.3v10.6
		c0,1,0.6,1.8,1.5,1.8h3.5c0.8,0,1.5-0.8,1.5-1.8V29c0-1-0.4-1.8-1.1-2.3v-4.1c0.7,0.1,1.4-0.3,1.6-0.5l4.8-4.7h2v0.5
		c0,1,1,1.8,2.2,1.8h2.8c1.2,0,2.2-0.8,2.2-1.8V6.7c0-1-1-1.8-2.2-1.8h-2.8c-1.2,0-2.2,0.8-2.2,1.8V9h-3.6L30.7,9.8z M31.5,16.2
		l-5.1,5c0,0-0.5,0.5-1.1,0.1l-0.9-0.6v6.8l0.4,0.1c0.4,0.1,0.7,0.8,0.7,1.4v10.6c0,0.4-0.2,0.7-0.3,0.7h-3.5
		c-0.1,0-0.3-0.3-0.3-0.7V29c0-0.7,0.3-1.3,0.7-1.4l0.4-0.1v-9.1l0.8-0.8h-1.3l-0.6,0v0.1c-0.3,0-0.7,0-1-0.3
		c-0.1-0.1-0.4-0.5,0.2-1.1l2.9-2.9l-3.6,2.1c0,0-0.8,0.5-1.4-0.2c-0.1-0.1-0.5-0.7,0.4-1.5l1.8-1.4h2.9l1.6,1.6c0.7,0.8,3,2,5,0.5
		c0.2-0.1,2.6-1.7,1.8-4.2h3V6.7C35,6.3,35.5,6,36.1,6h2.8C39.5,6,40,6.3,40,6.7v11.1c0,0.4-0.5,0.7-1.1,0.7h-2.8
		c-0.6,0-1.1-0.3-1.1-0.7v-1.6H31.5z"/>
	<path class="st1" d="M12.6,42.5c-1.2,0-2.2,1-2.2,2.2V46h26.1v-1.4c0-1.2-1-2.2-2.2-2.2H12.6z M12.6,43.5h21.8
		c0.6,0,1.1,0.5,1.1,1.1v0.3H11.5v-0.3C11.5,44,12,43.5,12.6,43.5z"/>
	<path class="st1" d="M40.8,47.5H6.1c-1.3,0-2.3,1.3-2.3,2.9v0.7h0.1h38.7l0.6,0v-0.7C43.1,48.8,42.1,47.5,40.8,47.5z M6.1,48.8
		h34.7c0.5,0,0.9,0.4,1,0.9H5C5.2,49.2,5.6,48.8,6.1,48.8z"/>
</g>
<g>
	<path class="st1" d="M65.5,5.7c0-1.1-1-1.9-2.3-1.9h-3c-1.3,0-2.3,0.9-2.3,1.9v11.8c0,1.1,1,1.9,2.3,1.9h3c1.3,0,2.3-0.9,2.3-1.9
		v-0.9h1.8l1.9,1.9h3.1l-0.9-1c-0.2-0.2-0.3-0.4-0.4-0.6l-0.1-0.3l-0.2-0.1c-1-0.5-1.3-1.4-1.4-2.1c-0.2-1,0.6-1.9,0.7-2l2.8-2.5h5
		l2.2,2.1c0.4,0.4,0.9,0.7,1.5,0.7c0.8,0,1.2-0.4,1.3-0.5c0.5-0.4,0.8-1,0.8-1.5c0-0.9-0.6-1.5-0.8-1.6l-3-3
		c-0.7-0.7-2.3-0.7-2.5-0.7h-4.1c-1.5,0-2.6,0.9-3,1.3h-4.7V5.7z M70.5,7.9l0.3,0l0.2-0.2c0,0,1-1.1,2.3-1.1h4.1
		c0.4,0,1.4,0.1,1.6,0.4l3,3l0,0c0,0,0.4,0.3,0.4,0.7c0,0.2-0.1,0.4-0.4,0.6l0,0c0,0-0.1,0.2-0.5,0.2c-0.2,0-0.4-0.1-0.7-0.3
		l-2.5-2.4h-5.9l-3.2,2.8l0,0c-0.1,0.1-1.3,1.4-1,3c0.2,1,0.9,1.9,2.1,2.6c0,0,0,0.1,0,0.1h-0.5l-1.9-1.9h-3.4v2.1
		c0,0.4-0.5,0.8-1.2,0.8h-3c-0.6,0-1.2-0.3-1.2-0.8V5.7c0-0.4,0.5-0.8,1.2-0.8h3c0.6,0,1.2,0.3,1.2,0.8v2.2H70.5z"/>
	<path class="st1" d="M84.2,9.8c1.1,2.3-1,3.6-1.1,3.6l0,0c-1.6,1.2-3.4-0.2-3.5-0.3l-2-2h-3.8l-2.1,1.7c-1.4,1.3-1,2.5-0.6,3.1
		c0.5,0.6,1.1,0.7,1.5,0.8c0,0.1,0,0.2,0,0.3c0,0.7,0.5,1.2,0.5,1.2c0.5,0.5,1.2,0.6,1.8,0.6v7.9c-0.6,0.4-1.1,1.3-1.1,2.3v10.6
		c0,1,0.6,1.8,1.5,1.8h3.5c0.8,0,1.5-0.8,1.5-1.8V29c0-1-0.4-1.8-1.1-2.3v-4.1c0.7,0.1,1.4-0.3,1.6-0.5l4.8-4.7h2v0.5
		c0,1,1,1.8,2.2,1.8h2.8c1.2,0,2.2-0.8,2.2-1.8V6.7c0-1-1-1.8-2.2-1.8h-2.8c-1.2,0-2.2,0.8-2.2,1.8V9h-3.6L84.2,9.8z M85,16.2
		l-5.1,5c0,0-0.5,0.5-1.1,0.1l-0.9-0.6v6.8l0.4,0.1c0.4,0.1,0.7,0.8,0.7,1.4v10.6c0,0.4-0.2,0.7-0.3,0.7h-3.5
		c-0.1,0-0.3-0.3-0.3-0.7V29c0-0.7,0.3-1.3,0.7-1.4l0.4-0.1v-9.1l0.8-0.8h-1.3l-0.6,0v0.1c-0.3,0-0.7,0-1-0.3
		c-0.1-0.1-0.4-0.5,0.2-1.1l2.9-2.9l-3.6,2.1c0,0-0.8,0.5-1.4-0.2c-0.1-0.1-0.5-0.7,0.4-1.5l1.8-1.4h2.9l1.6,1.6c0.7,0.8,3,2,5,0.5
		c0.2-0.1,2.6-1.7,1.8-4.2h3V6.7C88.5,6.3,89,6,89.6,6h2.8c0.6,0,1.1,0.3,1.1,0.7v11.1c0,0.4-0.5,0.7-1.1,0.7h-2.8
		c-0.6,0-1.1-0.3-1.1-0.7v-1.6H85z"/>
	<path class="st1" d="M66.1,42.5c-1.2,0-2.2,1-2.2,2.2V46h26.1v-1.4c0-1.2-1-2.2-2.2-2.2H66.1z M66.1,43.5h21.8
		c0.6,0,1.1,0.5,1.1,1.1v0.3H65.1v-0.3C65.1,44,65.5,43.5,66.1,43.5z"/>
	<path class="st1" d="M94.4,47.5H59.6c-1.3,0-2.3,1.3-2.3,2.9v0.7h0.1h38.7l0.6,0v-0.7C96.7,48.8,95.7,47.5,94.4,47.5z M59.6,48.8
		h34.7c0.5,0,0.9,0.4,1,0.9H58.6C58.8,49.2,59.2,48.8,59.6,48.8z"/>
</g>
<g>
	<path class="st1" d="M119.1,5.7c0-1.1-1-1.9-2.3-1.9h-3c-1.3,0-2.3,0.9-2.3,1.9v11.8c0,1.1,1,1.9,2.3,1.9h3c1.3,0,2.3-0.9,2.3-1.9
		v-0.9h1.8l1.9,1.9h3.1l-0.9-1c-0.2-0.2-0.3-0.4-0.4-0.6l-0.1-0.3l-0.2-0.1c-1-0.5-1.3-1.4-1.4-2.1c-0.2-1,0.6-1.9,0.7-2l2.8-2.5h5
		l2.2,2.1c0.4,0.4,0.9,0.7,1.5,0.7c0.8,0,1.2-0.4,1.3-0.5c0.5-0.4,0.8-1,0.8-1.5c0-0.9-0.6-1.5-0.8-1.6l-3-3
		c-0.7-0.7-2.3-0.7-2.5-0.7h-4.1c-1.5,0-2.6,0.9-3,1.3h-4.7V5.7z M124,7.9l0.3,0l0.2-0.2c0,0,1-1.1,2.3-1.1h4.1
		c0.4,0,1.4,0.1,1.6,0.4l3,3l0,0c0,0,0.4,0.3,0.4,0.7c0,0.2-0.1,0.4-0.4,0.6l0,0c0,0-0.1,0.2-0.5,0.2c-0.2,0-0.4-0.1-0.7-0.3
		l-2.5-2.4h-5.9l-3.2,2.8l0,0c-0.1,0.1-1.3,1.4-1,3c0.2,1,0.9,1.9,2.1,2.6c0,0,0,0.1,0,0.1h-0.5l-1.9-1.9h-3.4v2.1
		c0,0.4-0.5,0.8-1.2,0.8h-3c-0.6,0-1.2-0.3-1.2-0.8V5.7c0-0.4,0.5-0.8,1.2-0.8h3c0.6,0,1.2,0.3,1.2,0.8v2.2H124z"/>
	<path class="st1" d="M137.7,9.8c1.1,2.3-1,3.6-1.1,3.6l0,0c-1.6,1.2-3.4-0.2-3.5-0.3l-2-2h-3.8l-2.1,1.7c-1.4,1.3-1,2.5-0.6,3.1
		c0.5,0.6,1.1,0.7,1.5,0.8c0,0.1,0,0.2,0,0.3c0,0.7,0.5,1.2,0.5,1.2c0.5,0.5,1.2,0.6,1.8,0.6v7.9c-0.6,0.4-1.1,1.3-1.1,2.3v10.6
		c0,1,0.6,1.8,1.5,1.8h3.5c0.8,0,1.5-0.8,1.5-1.8V29c0-1-0.4-1.8-1.1-2.3v-4.1c0.7,0.1,1.4-0.3,1.6-0.5l4.8-4.7h2v0.5
		c0,1,1,1.8,2.2,1.8h2.8c1.2,0,2.2-0.8,2.2-1.8V6.7c0-1-1-1.8-2.2-1.8h-2.8c-1.2,0-2.2,0.8-2.2,1.8V9h-3.6L137.7,9.8z M138.6,16.2
		l-5.1,5c0,0-0.5,0.5-1.1,0.1l-0.9-0.6v6.8l0.4,0.1c0.4,0.1,0.7,0.8,0.7,1.4v10.6c0,0.4-0.2,0.7-0.3,0.7h-3.5
		c-0.1,0-0.3-0.3-0.3-0.7V29c0-0.7,0.3-1.3,0.7-1.4l0.4-0.1v-9.1l0.8-0.8h-1.3l-0.6,0v0.1c-0.3,0-0.7,0-1-0.3
		c-0.1-0.1-0.4-0.5,0.2-1.1l2.9-2.9l-3.6,2.1c0,0-0.8,0.5-1.4-0.2c-0.1-0.1-0.5-0.7,0.4-1.5l1.8-1.4h2.9l1.6,1.6c0.7,0.8,3,2,5,0.5
		c0.2-0.1,2.6-1.7,1.8-4.2h3V6.7c0-0.4,0.5-0.7,1.1-0.7h2.8c0.6,0,1.1,0.3,1.1,0.7v11.1c0,0.4-0.5,0.7-1.1,0.7h-2.8
		c-0.6,0-1.1-0.3-1.1-0.7v-1.6H138.6z"/>
	<path class="st1" d="M119.7,42.5c-1.2,0-2.2,1-2.2,2.2V46h26.1v-1.4c0-1.2-1-2.2-2.2-2.2H119.7z M119.7,43.5h21.8
		c0.6,0,1.1,0.5,1.1,1.1v0.3h-23.9v-0.3C118.6,44,119.1,43.5,119.7,43.5z"/>
	<path class="st1" d="M147.9,47.5h-34.7c-1.3,0-2.3,1.3-2.3,2.9v0.7h0.1h38.7l0.6,0v-0.7C150.2,48.8,149.2,47.5,147.9,47.5z
		 M113.2,48.8h34.7c0.5,0,0.9,0.4,1,0.9h-36.8C112.3,49.2,112.7,48.8,113.2,48.8z"/>
</g>
<g>
	<path class="st1" d="M172.6,5.7c0-1.1-1-1.9-2.3-1.9h-3c-1.3,0-2.3,0.9-2.3,1.9v11.8c0,1.1,1,1.9,2.3,1.9h3c1.3,0,2.3-0.9,2.3-1.9
		v-0.9h1.8l1.9,1.9h3.1l-0.9-1c-0.2-0.2-0.3-0.4-0.4-0.6l-0.1-0.3l-0.2-0.1c-1-0.5-1.3-1.4-1.4-2.1c-0.2-1,0.6-1.9,0.7-2l2.8-2.5h5
		L187,12c0.4,0.4,0.9,0.7,1.5,0.7c0.8,0,1.2-0.4,1.3-0.5c0.5-0.4,0.8-1,0.8-1.5c0-0.9-0.6-1.5-0.8-1.6l-3-3
		c-0.7-0.7-2.3-0.7-2.5-0.7h-4.1c-1.5,0-2.6,0.9-3,1.3h-4.7V5.7z M177.5,7.9l0.3,0l0.2-0.2c0,0,1-1.1,2.3-1.1h4.1
		c0.4,0,1.4,0.1,1.6,0.4l3,3l0,0c0,0,0.4,0.3,0.4,0.7c0,0.2-0.1,0.4-0.4,0.6l0,0c0,0-0.1,0.2-0.5,0.2c-0.2,0-0.4-0.1-0.7-0.3
		l-2.5-2.4h-5.9l-3.2,2.8l0,0c-0.1,0.1-1.3,1.4-1,3c0.2,1,0.9,1.9,2.1,2.6c0,0,0,0.1,0,0.1h-0.5l-1.9-1.9h-3.4v2.1
		c0,0.4-0.5,0.8-1.2,0.8h-3c-0.6,0-1.2-0.3-1.2-0.8V5.7c0-0.4,0.5-0.8,1.2-0.8h3c0.6,0,1.2,0.3,1.2,0.8v2.2H177.5z"/>
	<path class="st1" d="M191.3,9.8c1.1,2.3-1,3.6-1.1,3.6l0,0c-1.6,1.2-3.4-0.2-3.5-0.3l-2-2h-3.8l-2.1,1.7c-1.4,1.3-1,2.5-0.6,3.1
		c0.5,0.6,1.1,0.7,1.5,0.8c0,0.1,0,0.2,0,0.3c0,0.7,0.5,1.2,0.5,1.2c0.5,0.5,1.2,0.6,1.8,0.6v7.9c-0.6,0.4-1.1,1.3-1.1,2.3v10.6
		c0,1,0.6,1.8,1.5,1.8h3.5c0.8,0,1.5-0.8,1.5-1.8V29c0-1-0.4-1.8-1.1-2.3v-4.1c0.7,0.1,1.4-0.3,1.6-0.5l4.8-4.7h2v0.5
		c0,1,1,1.8,2.2,1.8h2.8c1.2,0,2.2-0.8,2.2-1.8V6.7c0-1-1-1.8-2.2-1.8h-2.8c-1.2,0-2.2,0.8-2.2,1.8V9h-3.6L191.3,9.8z M192.1,16.2
		l-5.1,5c0,0-0.5,0.5-1.1,0.1l-0.9-0.6v6.8l0.4,0.1c0.4,0.1,0.7,0.8,0.7,1.4v10.6c0,0.4-0.2,0.7-0.3,0.7h-3.5
		c-0.1,0-0.3-0.3-0.3-0.7V29c0-0.7,0.3-1.3,0.7-1.4l0.4-0.1v-9.1l0.8-0.8h-1.3l-0.6,0v0.1c-0.3,0-0.7,0-1-0.3
		c-0.1-0.1-0.4-0.5,0.2-1.1l2.9-2.9l-3.6,2.1c0,0-0.8,0.5-1.4-0.2c-0.1-0.1-0.5-0.7,0.4-1.5l1.8-1.4h2.9l1.6,1.6c0.7,0.8,3,2,5,0.5
		c0.2-0.1,2.6-1.7,1.8-4.2h3V6.7c0-0.4,0.5-0.7,1.1-0.7h2.8c0.6,0,1.1,0.3,1.1,0.7v11.1c0,0.4-0.5,0.7-1.1,0.7h-2.8
		c-0.6,0-1.1-0.3-1.1-0.7v-1.6H192.1z"/>
	<path class="st1" d="M173.2,42.5c-1.2,0-2.2,1-2.2,2.2V46h26.1v-1.4c0-1.2-1-2.2-2.2-2.2H173.2z M173.2,43.5H195
		c0.6,0,1.1,0.5,1.1,1.1v0.3h-23.9v-0.3C172.2,44,172.6,43.5,173.2,43.5z"/>
	<path class="st1" d="M201.5,47.5h-34.7c-1.3,0-2.3,1.3-2.3,2.9v0.7h0.1h38.7l0.6,0v-0.7C203.8,48.8,202.7,47.5,201.5,47.5z
		 M166.7,48.8h34.7c0.5,0,0.9,0.4,1,0.9h-36.8C165.9,49.2,166.3,48.8,166.7,48.8z"/>
</g>
<g>
	<path class="st1" d="M226.2,5.7c0-1.1-1-1.9-2.3-1.9h-3c-1.3,0-2.3,0.9-2.3,1.9v11.8c0,1.1,1,1.9,2.3,1.9h3c1.3,0,2.3-0.9,2.3-1.9
		v-0.9h1.8l1.9,1.9h3.1l-0.9-1c-0.2-0.2-0.3-0.4-0.4-0.6l-0.1-0.3l-0.2-0.1c-1-0.5-1.3-1.4-1.4-2.1c-0.2-1,0.6-1.9,0.7-2l2.8-2.5h5
		l2.2,2.1c0.4,0.4,0.9,0.7,1.5,0.7c0.8,0,1.2-0.4,1.3-0.5c0.5-0.4,0.8-1,0.8-1.5c0-0.9-0.6-1.5-0.8-1.6l-3-3
		c-0.7-0.7-2.3-0.7-2.5-0.7h-4.1c-1.5,0-2.6,0.9-3,1.3h-4.7V5.7z M231.1,7.9l0.3,0l0.2-0.2c0,0,1-1.1,2.3-1.1h4.1
		c0.4,0,1.4,0.1,1.6,0.4l3,3l0,0c0,0,0.4,0.3,0.4,0.7c0,0.2-0.1,0.4-0.4,0.6l0,0c0,0-0.1,0.2-0.5,0.2c-0.2,0-0.4-0.1-0.7-0.3
		l-2.5-2.4h-5.9l-3.2,2.8l0,0c-0.1,0.1-1.3,1.4-1,3c0.2,1,0.9,1.9,2.1,2.6c0,0,0,0.1,0,0.1h-0.5l-1.9-1.9H225v2.1
		c0,0.4-0.5,0.8-1.2,0.8h-3c-0.6,0-1.2-0.3-1.2-0.8V5.7c0-0.4,0.5-0.8,1.2-0.8h3c0.6,0,1.2,0.3,1.2,0.8v2.2H231.1z"/>
	<path class="st1" d="M244.8,9.8c1.1,2.3-1,3.6-1.1,3.6l0,0c-1.6,1.2-3.4-0.2-3.5-0.3l-2-2h-3.8l-2.1,1.7c-1.4,1.3-1,2.5-0.6,3.1
		c0.5,0.6,1.1,0.7,1.5,0.8c0,0.1,0,0.2,0,0.3c0,0.7,0.5,1.2,0.5,1.2c0.5,0.5,1.2,0.6,1.8,0.6v7.9c-0.6,0.4-1.1,1.3-1.1,2.3v10.6
		c0,1,0.6,1.8,1.5,1.8h3.5c0.8,0,1.5-0.8,1.5-1.8V29c0-1-0.4-1.8-1.1-2.3v-4.1c0.7,0.1,1.4-0.3,1.6-0.5l4.8-4.7h2v0.5
		c0,1,1,1.8,2.2,1.8h2.8c1.2,0,2.2-0.8,2.2-1.8V6.7c0-1-1-1.8-2.2-1.8h-2.8c-1.2,0-2.2,0.8-2.2,1.8V9h-3.6L244.8,9.8z M245.6,16.2
		l-5.1,5c0,0-0.5,0.5-1.1,0.1l-0.9-0.6v6.8l0.4,0.1c0.4,0.1,0.7,0.8,0.7,1.4v10.6c0,0.4-0.2,0.7-0.3,0.7h-3.5
		c-0.1,0-0.3-0.3-0.3-0.7V29c0-0.7,0.3-1.3,0.7-1.4l0.4-0.1v-9.1l0.8-0.8H236l-0.6,0v0.1c-0.3,0-0.7,0-1-0.3
		c-0.1-0.1-0.4-0.5,0.2-1.1l2.9-2.9l-3.6,2.1c0,0-0.8,0.5-1.4-0.2c-0.1-0.1-0.5-0.7,0.4-1.5l1.8-1.4h2.9l1.6,1.6c0.7,0.8,3,2,5,0.5
		c0.2-0.1,2.6-1.7,1.8-4.2h3V6.7c0-0.4,0.5-0.7,1.1-0.7h2.8c0.6,0,1.1,0.3,1.1,0.7v11.1c0,0.4-0.5,0.7-1.1,0.7h-2.8
		c-0.6,0-1.1-0.3-1.1-0.7v-1.6H245.6z"/>
	<path class="st1" d="M226.8,42.5c-1.2,0-2.2,1-2.2,2.2V46h26.1v-1.4c0-1.2-1-2.2-2.2-2.2H226.8z M226.8,43.5h21.8
		c0.6,0,1.1,0.5,1.1,1.1v0.3h-23.9v-0.3C225.7,44,226.2,43.5,226.8,43.5z"/>
	<path class="st1" d="M255,47.5h-34.7c-1.3,0-2.3,1.3-2.3,2.9v0.7h0.1h38.7l0.6,0v-0.7C257.3,48.8,256.3,47.5,255,47.5z M220.3,48.8
		H255c0.5,0,0.9,0.4,1,0.9h-36.8C219.4,49.2,219.8,48.8,220.3,48.8z"/>
</g>
</svg>
